<svg width="197" height="197" fill="none" xmlns="http://www.w3.org/2000/svg"><path d="M158.27 171.098a48.918 48.918 0 0 0 15.066-17.146c22.521-42.194 17.435-104.41-25.937-131.096C127.353 10.524 98.5 2.719 76.83 15.386 59.258 25.657 48.486 44.999 39.573 62.595c-5.598 11.083-10.212 22.978-17.115 33.332-8.952 13.428-18.806 31.363-8.857 46.965 13.557 21.252 39.163 30.957 62.382 37.347 25.192 6.931 53.521 7.916 76.79-5.606a73.241 73.241 0 0 0 5.497-3.535Z" fill="#C8C8C8"/><path opacity=".7" d="M158.27 171.098a48.918 48.918 0 0 0 15.066-17.146c22.521-42.194 17.435-104.41-25.937-131.096C127.353 10.524 98.5 2.719 76.83 15.386 59.258 25.657 48.486 44.999 39.573 62.595c-5.598 11.083-10.212 22.978-17.115 33.332-8.952 13.428-18.806 31.363-8.857 46.965 13.557 21.252 39.163 30.957 62.382 37.347 25.192 6.931 53.521 7.916 76.79-5.606a73.241 73.241 0 0 0 5.497-3.535Z" fill="#fff"/><g opacity=".3" stroke="#000" stroke-miterlimit="10"><path opacity=".3" d="M178.088 31.705h-40.582v53.296h40.582V31.705Z"/><path opacity=".3" d="M170.641 41.484h-25.689v33.738h25.689V41.484Z"/></g><path d="M127.998 25.732H20.555v95.64h107.443v-95.64Z" fill="#263238" stroke="#263238" stroke-miterlimit="10"/><path d="M125.961 23.404H18.518v95.639H125.96v-95.64Z" fill="#fff" stroke="#263238" stroke-linecap="round" stroke-linejoin="round"/><path d="M105.04 62h5.343v-5.343h-5.343V62ZM112.033 62h5.343v-5.343h-5.343V62Z" fill="#fff" stroke="#263238" stroke-linecap="round" stroke-linejoin="round"/><path d="M102.904 59.652H75.762" stroke="#263238" stroke-linecap="round" stroke-linejoin="round"/><path d="M105.04 74.612h5.343v-5.343h-5.343v5.343ZM112.033 74.612h5.343v-5.343h-5.343v5.343Z" fill="#fff" stroke="#263238" stroke-linecap="round" stroke-linejoin="round"/><path d="M102.904 72.26H75.762" stroke="#263238" stroke-linecap="round" stroke-linejoin="round"/><path d="M105.04 87.224h5.343V81.88h-5.343v5.343ZM112.033 87.224h5.343V81.88h-5.343v5.343Z" fill="#fff" stroke="#263238" stroke-linecap="round" stroke-linejoin="round"/><path d="M102.904 84.872H75.762" stroke="#263238" stroke-linecap="round" stroke-linejoin="round"/><path d="M53.962 62h5.343v-5.343h-5.343V62ZM60.96 62h5.342v-5.343h-5.343V62Z" fill="#fff" stroke="#263238" stroke-linecap="round" stroke-linejoin="round"/><path d="M51.826 59.652H24.684" stroke="#263238" stroke-linecap="round" stroke-linejoin="round"/><path d="M53.962 74.612h5.343v-5.343h-5.343v5.343ZM60.96 74.612h5.342v-5.343h-5.343v5.343Z" fill="#fff" stroke="#263238" stroke-linecap="round" stroke-linejoin="round"/><path d="M51.826 72.26H24.684" stroke="#263238" stroke-linecap="round" stroke-linejoin="round"/><path d="M53.962 87.224h5.343V81.88h-5.343v5.343ZM60.96 87.224h5.342V81.88h-5.343v5.343Z" fill="#fff" stroke="#263238" stroke-linecap="round" stroke-linejoin="round"/><path d="M51.826 84.872H24.684" stroke="#263238" stroke-linecap="round" stroke-linejoin="round"/><path d="M32.257 105.592H26.37v5.886h5.887v-5.886ZM56.278 105.592h-5.886v5.886h5.886v-5.886ZM81.254 105.592h-5.886v5.886h5.886v-5.886Z" fill="#fff" stroke="#263238" stroke-linecap="round" stroke-linejoin="round"/><path d="m62.712 58.446.91 1.828 4.409-4.26M62.712 70.916l.91 1.824 4.409-4.259M55.108 83.993l.915 1.824 4.408-4.259M113.495 58.296l.91 1.825 4.409-4.26M106.136 71.066l.91 1.824 4.409-4.255M106.136 83.879l.91 1.824 4.409-4.255" stroke="#263238" stroke-width="2" stroke-linecap="round" stroke-linejoin="round"/><path d="M125.961 23.404H18.518v14.94H125.96v-14.94Z" fill="#fff" stroke="#263238" stroke-linecap="round" stroke-linejoin="round"/><path d="M125.961 23.404h-4.046v95.639h4.046v-95.64Z" fill="#DBDBDB" stroke="#263238" stroke-linecap="round" stroke-linejoin="round"/><path d="M125.961 37.777h-4.046v18.459h4.046v-18.46Z" fill="#949494" stroke="#263238" stroke-linecap="round" stroke-linejoin="round"/><path d="M125.961 23.404H18.518v7.265H125.96v-7.265Z" fill="#DBDBDB" stroke="#263238" stroke-linecap="round" stroke-linejoin="round"/><path d="M66.337 25.52H23.966v3.025h42.37V25.52Z" fill="#fff" stroke="#263238" stroke-linecap="round" stroke-linejoin="round"/><path d="M119.618 25.661h3.72M119.618 27.233h3.72M119.618 28.81h3.72" stroke="#263238" stroke-linecap="round" stroke-linejoin="round"/><path d="M56.05 44.388c0-.934.492-1.466 1.39-1.466.899 0 1.388.532 1.388 1.466v3.026c0 .93-.49 1.462-1.387 1.462-.899 0-1.391-.532-1.391-1.462v-3.026Zm.918 3.085c0 .414.181.571.473.571.291 0 .472-.157.472-.57V44.32c0-.418-.18-.575-.472-.575s-.473.157-.473.575v3.152ZM60.235 44.597v4.212h-.824v-5.82h1.147l.941 3.483V42.99h.816v5.82h-.942l-1.138-4.212ZM62.969 42.99h.918v4.987h1.517v.832H62.98l-.012-5.82ZM65.798 42.99h.914v5.819h-.914v-5.82ZM68.186 44.597v4.212h-.812v-5.82h1.147l.941 3.483V42.99h.812v5.82h-.93l-1.158-4.212ZM71.834 45.444h1.257v.831h-1.257v1.702h1.576v.832h-2.49v-5.82h2.494v.832h-1.576l-.004 1.623ZM75.005 42.99h2.825v.83h-.958v4.989h-.914V43.82h-.953v-.832ZM79.147 45.444h1.252v.831h-1.252v1.702h1.575v.832H78.23v-5.82h2.493v.832h-1.575v1.623ZM82.52 42.922c.89 0 1.347.532 1.347 1.466v.181h-.863v-.24c0-.418-.165-.575-.457-.575-.292 0-.457.157-.457.575 0 1.182 1.785 1.422 1.785 3.085 0 .93-.465 1.462-1.364 1.462-.898 0-1.347-.532-1.347-1.462v-.359h.867v.418c0 .414.181.563.473.563.291 0 .472-.15.472-.563 0-1.182-1.784-1.422-1.784-3.085-.028-.934.44-1.466 1.327-1.466ZM84.135 42.99h2.825v.83h-.954v4.989h-.902V43.82h-.957l-.012-.832ZM30.952 104.174h-.926l-.157-1.056h-1.107l-.158 1.056h-.855l.93-5.82h1.34l.933 5.82Zm-2.088-1.848h.883l-.442-2.943-.441 2.943ZM54.588 99.682v.205c0 .599-.181.981-.591 1.182.492.189.681.63.681 1.245v.477c0 .898-.472 1.379-1.386 1.379h-1.439v-5.816h1.38c.95 0 1.355.442 1.355 1.328Zm-1.82-.508v1.536h.358c.339 0 .548-.149.548-.614v-.323c0-.418-.142-.6-.465-.6h-.441Zm0 2.364v1.789h.524c.307 0 .472-.142.472-.576v-.504c0-.544-.173-.709-.587-.709h-.41ZM79.8 102.003v.788c0 .933-.464 1.465-1.362 1.465-.899 0-1.364-.532-1.364-1.465v-3.026c0-.93.465-1.462 1.364-1.462.898 0 1.363.532 1.363 1.462v.567h-.863v-.65c0-.418-.185-.575-.477-.575-.291 0-.473.157-.473.575v3.152c0 .418.186.567.473.567.288 0 .477-.149.477-.567v-.831h.863Z" fill="#263238"/><path d="M25.097 95.253h69.836" stroke="#263238" stroke-linecap="round" stroke-linejoin="round"/><path opacity=".3" d="M139.803 23.873h7.711v-7.711h-7.711v7.71ZM149.901 23.873h7.71v-7.711h-7.71v7.71Z" stroke="#000" stroke-linecap="round" stroke-linejoin="round"/><path opacity=".3" d="m141.462 19.211 1.316 2.632 3.869-4.259" stroke="#000" stroke-width="2" stroke-linecap="round" stroke-linejoin="round"/><path opacity=".3" d="M23.08 136.998h7.711v-7.711h-7.71v7.711ZM33.174 136.998h7.71v-7.711h-7.71v7.711Z" stroke="#000" stroke-linecap="round" stroke-linejoin="round"/><path opacity=".3" d="m24.731 132.337 1.316 2.632 3.87-4.26" stroke="#000" stroke-width="2" stroke-linecap="round" stroke-linejoin="round"/><path opacity=".3" d="M59.608 136.998h7.71v-7.711h-7.71v7.711ZM69.706 136.998h7.711v-7.711h-7.71v7.711Z" stroke="#000" stroke-linecap="round" stroke-linejoin="round"/><path opacity=".3" d="m61.263 132.337 1.316 2.632 3.869-4.26" stroke="#000" stroke-width="2" stroke-linecap="round" stroke-linejoin="round"/><g opacity=".3" stroke="#000" stroke-linecap="round" stroke-linejoin="round"><path opacity=".3" d="M71.566 20.018a4.949 4.949 0 1 0-1.58-9.77 4.949 4.949 0 0 0 1.58 9.77Z"/><path opacity=".3" d="m72.16 16.922-1.383-1.789v-2.817"/></g><g opacity=".3"><path opacity=".3" d="M163.147 110.052h-.733l-.126-.835h-.891l-.126.835h-.666l.741-4.614h1.06l.741 4.614Zm-1.655-1.462h.697l-.35-2.336-.347 2.336ZM173.466 106.498v.166a.9.9 0 0 1-.465.93.937.937 0 0 1 .54.989v.394a.983.983 0 0 1-1.104 1.091h-1.138v-4.63h1.095c.749 0 1.072.347 1.072 1.06Zm-1.442-.394v1.222h.283c.268 0 .434-.118.434-.489v-.256c0-.331-.11-.477-.37-.477h-.347Zm0 1.88v1.418h.413c.245 0 .394-.11.394-.453v-.394c0-.425-.141-.559-.468-.559l-.339-.012ZM183.915 108.35v.611c0 .74-.366 1.162-1.08 1.162-.713 0-1.083-.422-1.083-1.162v-2.4c0-.741.37-1.162 1.083-1.162.714 0 1.08.421 1.08 1.162v.449h-.686v-.512c0-.331-.145-.453-.374-.453-.228 0-.394.122-.394.453v2.494c0 .331.146.449.394.449.248 0 .374-.118.374-.449v-.642h.686Z" fill="#000"/><path opacity=".3" d="M164.589 112.57h-5.607v5.606h5.607v-5.606ZM175.019 112.57h-5.607v5.606h5.607v-5.606ZM185.447 112.57h-5.606v5.606h5.606v-5.606Z" stroke="#000" stroke-miterlimit="10"/></g><path d="M31.693 177.521H19.83M186.492 177.521H35.559" stroke="#263238" stroke-miterlimit="10"/><path d="m140.91 177.387 2.537-38.534 1.868-18.321-5.122-5.716-2.569-1.868s-3.617 3.152-6.182 3.849c-2.565.698-5.032 1.403-5.032 1.403s-8.75 16.453-9.456 23.92c-.705 7.466-1.867 35.125-1.867 35.125l.973.142h24.85Z" fill="#9E9E9E" stroke="#263238" stroke-miterlimit="10"/><path d="M128.882 145.619s-.438-.225.437-2.479" stroke="#263238" stroke-miterlimit="10"/><path d="M127.854 117.806c.435 3.113.675 6.25.721 9.393 0 0 2.628-1.052 4.728-4.728a42.515 42.515 0 0 0 2.986-6.17l-8.435 1.505Z" fill="#263238" stroke="#263238" stroke-miterlimit="10"/><path d="m140.911 177.387 2.281-34.645c-2.238 1.143-6.655 3.03-11.529 3.113-5.839.098-13.069-4.437-13.069-4.437l-1.627.639v.063c-.701 7.486-1.867 35.125-1.867 35.125l.973.142h24.838Z" fill="#fff" stroke="#263238" stroke-miterlimit="10"/><path d="M137.112 157.994c0 8.924.308 17.51.394 19.385h17.198c.237-2.782 1.718-20.094 2.479-26.3.831-6.78 6.284-16.875 6.284-20.488 0-3.613 1.107-3.041-3.873-5.669-4.98-2.628-15.965-8.302-17.486-8.995-1.521-.694-3.183-2.364-3.183-2.364s.551 3.459.394 12.864c-.158 9.405-2.207 21.477-2.207 31.567Z" fill="#fff"/><g opacity=".2" fill="#000"><path opacity=".2" d="M138.924 113.598a46.78 46.78 0 0 1 .354 4.933v-4.598c-.22-.201-.354-.335-.354-.335ZM161.54 136.115v1.182c.134-.358.268-.705.394-1.048v-.142h.051c.051-.13.098-.263.146-.394h-.197v-4.905h1.525v-.394h-1.525v-4.2c-.122-.075-.252-.146-.394-.224v4.424h-4.137v-4.925h3.199l-.741-.394h-2.458v-1.3l-.394-.209v1.497h-4.137v-3.648l-.394-.205v3.853h-4.137v-4.913h2.06l-.764-.394h-1.296v-.666l-.394-.205v.871h-4.137v-2.975c-.138-.07-.268-.137-.394-.197v3.172h-4.098v.394h4.098v4.925h-4.062v.394h4.062v4.925h-4.137v-1.871a140.94 140.94 0 0 1-.394 5.992v1.182h-.103l-.035.394h.138v4.941h-.591l-.04.394h.65v4.925h-1.119l-.035.394h1.154v4.925h-1.536l-.024.394h1.576v4.925h-1.745v.394h1.749v4.925h-1.737v.394h1.733v4.925h-1.655v.394h1.647v9.358h.394v-9.37h4.11v9.358h.394v-9.358h4.137v9.358h.394v-9.358h4.137v9.358h.394v-9.358h2.651c0-.13 0-.26.036-.394h-2.687v-4.913h3.152c0-.13.027-.26.039-.394h-3.191v-4.925h3.64c0-.134.024-.26.04-.394h-3.68v-4.925h4.137v.524l.173-1.509c.055-.441.13-.898.221-1.367v-2.967h.737l.118-.394h-.855v-4.925h2.561c.051-.13.098-.264.149-.394h-2.71v-4.925l4.137-.012Zm-4.137-5.307h4.137v4.925h-4.137v-4.925Zm-13.987 36.827h-4.137v-4.913h4.137v4.913Zm0-5.319h-4.137v-4.925h4.137v4.925Zm0-5.319h-4.137v-4.913h4.137v4.913Zm0-5.319h-4.137v-4.925h4.137v4.925Zm0-5.319h-4.137v-4.913h4.137v4.913Zm0-5.319h-4.137v-4.925h4.137v4.925Zm0-5.319h-4.137v-4.913h4.137v4.913Zm4.531 31.914h-4.137v-4.913h4.137v4.913Zm0-5.319h-4.137v-4.925h4.137v4.925Zm0-5.319h-4.137v-4.913h4.137v4.913Zm0-5.319h-4.137v-4.925h4.137v4.925Zm0-5.319h-4.137v-4.913h4.137v4.913Zm0-5.319h-4.137v-4.925h4.137v4.925Zm0-5.319h-4.137v-4.913h4.137v4.913Zm0-5.319h-4.137v-4.925h4.137v4.925Zm0-5.319h-4.137v-4.913h4.137v4.913Zm4.531 42.552h-4.137v-4.913h4.137v4.913Zm0-5.319h-4.137v-4.925h4.137v4.925Zm0-5.319h-4.137v-4.913h4.137v4.913Zm0-5.319h-4.137v-4.925h4.137v4.925Zm0-5.319h-4.137v-4.913h4.137v4.913Zm0-5.319h-4.137v-4.925h4.137v4.925Zm0-5.319h-4.137v-4.913h4.137v4.913Zm0-5.319h-4.137v-4.925h4.137v4.925Zm4.531 21.276h-4.137v-4.925h4.137v4.925Zm0-5.319h-4.137v-4.913h4.137v4.913Zm0-5.319h-4.137v-4.925h4.137v4.925Zm0-5.319h-4.137v-4.913h4.137v4.913Zm0-5.319h-4.137v-4.925h4.137v4.925Z"/></g><path d="M137.112 157.994c0 8.924.308 17.51.394 19.385h17.198c.237-2.782 1.718-20.094 2.479-26.3.831-6.78 6.284-16.875 6.284-20.488 0-3.613 1.107-3.041-3.873-5.669-4.98-2.628-15.965-8.302-17.486-8.995-1.521-.694-3.183-2.364-3.183-2.364s.551 3.459.394 12.864c-.158 9.405-2.207 21.477-2.207 31.567Z" stroke="#263238" stroke-miterlimit="10"/><path d="M138.925 113.598s.551 3.459.394 12.864c-.032 2.364-.193 4.917-.394 7.549.473-.65 1.997-2.726 2.364-2.844.414-.138 2.628 1.938 4.424 2.214 1.797.276 2.49.276.556-1.801-1.935-2.076-2.758-8.159-3.459-12.726a17.8 17.8 0 0 0-.643-2.884h-.047c-1.536-.709-3.195-2.372-3.195-2.372Z" fill="#263238" stroke="#263238" stroke-miterlimit="10"/><path d="M150.275 156.386c1.273-.579 2.274-1.079 2.274-1.079l.469 3.617s-6.888 3.034-10.737 3.266c-3.849.233-4.2.351-4.2.351l.114-3.499" stroke="#263238" stroke-miterlimit="10"/><path d="M146.828 157.801a30.667 30.667 0 0 0 2.34-.922M139.477 158.691a46.222 46.222 0 0 0 6.012-.547M153.018 158.924l.232 2.801" stroke="#263238" stroke-miterlimit="10"/><path d="M100.229 177.387h19.354c.043-1.517.603-20.796.981-30.634.394-10.244 7.344-25.783 7.344-25.783s.93-2.191-.055-3.176c-.985-.985-3.349-.591-5.122.788-1.773 1.379-18.124 8.471-19.109 9.456-.985.985-.788 4.334-1.182 8.274-.394 3.94-6.895 31.126-6.895 31.126s-1.773.394-2.364.788-.591 1.576-.591 1.576.788.197 3.152 1.379c2.175 1.088 4.18 5.5 4.487 6.206Z" fill="#fff"/><path opacity=".2" d="M125.292 125.477v2.014c.134-.363.264-.714.394-1.052v-.962h.371l.153-.394h-.524v-4.913h2.482c.028-.122.059-.256.079-.394h-2.561v-2.474c-.13.019-.26.039-.394.071v2.403h-4.137v-.268l-.394.201v.067h-.134l-.788.394h.922v4.925h-4.137v-3.388l-.394.185v3.191h-4.137v-1.257l-.394.186v1.071h-2.289l-.835.394h3.124v4.937h-4.137v-4.452l-.394.189v4.263h-4.137v-.993a34.968 34.968 0 0 0-.394 4.334v1.97h-.142l-.035.394h.177v4.933h-1.06l-.082.394h1.142v4.925h-2.21l-.087.394h2.297v4.925h-3.408c-.031.134-.059.264-.09.394h3.498v4.925H98.5v-2.167l-.394 1.702v.445h-.102l-.09.394h.192v4.945H96.76l-.095.394h1.442v4.925h-3.345c-.401.107-.796.239-1.182.394v2.143c.118.048.248.103.394.17v-2.313h4.133v5.516c.138.197.268.394.394.595v-6.107h4.137v9.357h.394v-9.373h4.137v9.358h.394v-9.358h4.137v9.358h.394v-9.358h4.137v9.358h.394v-9.358h3.235v-.394h-3.235v-4.913h3.4v-.394h-3.4v-4.925h3.57v-.394h-3.57v-4.925h3.747v-.394h-3.747v-4.925h3.94c0-.13 0-.26.02-.394h-3.96v-4.925h4.137v2.912c.103-.839.233-1.702.394-2.577v-.335h.063c.024-.13.051-.26.075-.394h-.138v-4.925h1.32c.036-.13.075-.26.11-.394h-1.43v-4.925h2.955c.047-.13.091-.264.134-.394h-3.089v-4.925l4.137-.012Zm-4.137-5.307h4.137v4.925h-4.137v-4.925Zm-18.518 47.477H98.5v-4.925h4.137v4.925Zm0-5.319H98.5v-4.925h4.137v4.925Zm4.531 5.319h-4.137v-4.925h4.137v4.925Zm0-5.319h-4.137v-4.925h4.137v4.925Zm0-5.319h-4.137v-4.925h4.137v4.925Zm0-5.319h-4.137v-4.925h4.137v4.925Zm0-5.319h-4.137v-4.925h4.137v4.925Zm0-5.319h-4.137v-4.925h4.137v4.925Zm0-5.319h-4.137v-4.925h4.137v4.925Zm4.531 31.914h-4.137v-4.925h4.137v4.925Zm0-5.319h-4.137v-4.925h4.137v4.925Zm0-5.319h-4.137v-4.925h4.137v4.925Zm0-5.319h-4.137v-4.925h4.137v4.925Zm0-5.319h-4.137v-4.925h4.137v4.925Zm0-5.319h-4.137v-4.925h4.137v4.925Zm0-5.319h-4.137v-4.925h4.137v4.925Zm4.531 31.914h-4.137v-4.925h4.137v4.925Zm0-5.319h-4.137v-4.925h4.137v4.925Zm0-5.319h-4.137v-4.925h4.137v4.925Zm0-5.319h-4.137v-4.925h4.137v4.925Zm0-5.319h-4.137v-4.925h4.137v4.925Zm0-5.319h-4.137v-4.925h4.137v4.925Zm0-5.319h-4.137v-4.925h4.137v4.925Zm0-5.319h-4.137v-4.925h4.137v4.925Zm4.531 10.638h-4.137v-4.925h4.137v4.925Zm0-5.319h-4.137v-4.925h4.137v4.925Zm0-5.319h-4.137v-4.925h4.137v4.925Z" fill="#000"/><path d="M100.229 177.387h19.354c.043-1.517.603-20.796.981-30.634.394-10.244 7.344-25.783 7.344-25.783s.93-2.191-.055-3.176c-.985-.985-3.349-.591-5.122.788-1.773 1.379-18.124 8.471-19.109 9.456-.985.985-.788 4.334-1.182 8.274-.394 3.94-6.895 31.126-6.895 31.126s-1.773.394-2.364.788-.591 1.576-.591 1.576.788.197 3.152 1.379c2.175 1.088 4.18 5.5 4.487 6.206Z" stroke="#263238" stroke-miterlimit="10"/><path d="M92.59 169.814s.788.197 3.152 1.379 4.531 6.304 4.531 6.304h3.818c.24-.717.827-3.325-1.848-6.501-3.152-3.743-6.698-3.546-6.698-3.546s-1.773.394-2.364.788-.591 1.576-.591 1.576ZM125.474 117.325c-.848 2.242-2.853 7.313-4.516 9.728-2.167 3.152-6.107 5.713-4.728 6.895 1.379 1.182 5.319-2.561 5.319-2.561s.985 2.758 1.182 3.546a.294.294 0 0 0 .052.099 123.539 123.539 0 0 1 5.122-14.062s.929-2.191-.056-3.176c-.508-.512-1.375-.646-2.375-.469Z" fill="#263238" stroke="#263238" stroke-miterlimit="10"/><path d="M111.085 136.344a20.52 20.52 0 0 0 .221-2.199M107.956 177.879s.591-12.608.591-19.897c0-5.252 1.43-14.085 2.234-19.495" stroke="#263238" stroke-miterlimit="10"/><path d="M108.941 155.236s3.152.985 4.728 1.182l4.728.591-.359 4.464s-.232-.13-3.778-1.312-5.713-2.167-5.713-2.167" stroke="#263238" stroke-miterlimit="10"/><path d="M118.038 161.461s-.232 8.747-.232 9.929c0 1.182-3.546.394-3.546.394" stroke="#263238" stroke-miterlimit="10"/><path d="M120.868 113.165s3.715 5.342 7.041 7.805c3.325 2.462 6.162-.985 8.38-4.681 2.218-3.696 3.696-6.406 4.803-9.61 1.107-3.203 0-8.498-4.433-12.686-4.432-4.189-14.786-10.35-17.371-7.147-2.585 3.203-5.051 10.243-3.329 16.26a31.762 31.762 0 0 0 4.909 10.059Z" fill="#9E9E9E" stroke="#263238" stroke-miterlimit="10"/><path d="M119.304 101.672a7.47 7.47 0 0 1 4.298 0" stroke="#263238" stroke-width="2" stroke-miterlimit="10" stroke-linecap="round"/><path d="M122.482 104.97c.119.638-.031 1.201-.335 1.256-.303.056-.638-.417-.756-1.059-.118-.643.032-1.202.335-1.257.303-.056.638.417.756 1.06ZM133.443 105.139c.115.638-.035 1.182-.335 1.257-.299.075-.638-.418-.756-1.06-.118-.642.031-1.202.335-1.257.303-.055.638.418.756 1.06Z" fill="#263238"/><path d="M125.324 113.827c1.424.49 2.929.699 4.433.614 2.588-.122 4.807-1.97 4.807-1.97" stroke="#263238" stroke-miterlimit="10"/><path d="M119.669 89.568s5.473 12.482 6.159 12.825c.685.343 2.052-3.763 2.052-3.763s1.88 3.416 4.11 4.444c2.23 1.029 2.907-.681 2.907-.681a37.82 37.82 0 0 1 3.251 2.053l.855.681.855 3.077s-2.565 8.381-1.71 9.409c.855 1.028 5.642-.343 5.642-.343s-1.182 1.71.343 1.71 4.275.343 8.207-4.96c3.932-5.304 4.275-13.849 4.275-13.849s1.879 2.048 2.052-.517c.174-2.564-2.222-6.84-2.222-6.84s3.759 3.763 3.42-.169c-.339-3.932-2.565-8.38-3.42-9.405-.855-1.024-5.988-3.94-5.988-3.94s2.052-.342.516-2.738c-1.537-2.395-7.183-3.077-9.236-3.077-2.052 0-6.327.686-6.327.686s2.738-5.304-.17-5.647c-2.907-.342-8.037 5.304-8.037 5.304s-5.122-4.106-6.671-3.25c-1.548.854-.512 2.052-.512 2.052s-6.666.512-8.55 3.42c-1.883 2.908.343 4.618.343 4.618s-11.97 8.207-10.09 11.284c1.879 3.077 5.303.173 5.303.173s-4.791 12.313-4.106 13.168c.686.855 3.94-.343 3.94-.343s-.169 9.917 2.396 10.945c2.565 1.028 3.077-.855 3.077-.855s1.367 1.367 4.448 1.537c3.081.169 4.102-3.42 4.102-3.42s-3.42-8.038-3.247-14.704c.174-6.667 2.033-8.885 2.033-8.885Z" fill="#263238" stroke="#263238" stroke-miterlimit="10"/><path d="M126.557 103.969s-1.234 6.406-.249 7.762c.985 1.355 4.437 0 4.681-.737" fill="#9E9E9E"/><path d="M126.557 103.969s-1.234 6.406-.249 7.762c.985 1.355 4.437 0 4.681-.737" stroke="#263238" stroke-miterlimit="10"/><path d="M121.442 107.913c2.687 0 4.866-1.6 4.866-3.574 0-1.974-2.179-3.574-4.866-3.574s-4.866 1.6-4.866 3.574c0 1.974 2.179 3.574 4.866 3.574ZM133.144 107.668c2.688 0 4.866-1.6 4.866-3.573 0-1.974-2.178-3.574-4.866-3.574-2.687 0-4.866 1.6-4.866 3.574 0 1.973 2.179 3.573 4.866 3.573ZM126.557 103.969s.985-.737 1.721.126" stroke="#263238" stroke-miterlimit="10"/><path d="M86.014 172.142s6.186-1.745 8.089-2.06c1.903-.315 5.713 3.171 6.347 5.075.634 1.903-.177 2.328-.177 2.328l-12.675-.422-1.584-4.921Z" fill="#9E9E9E" stroke="#263238" stroke-miterlimit="10"/><path d="M88.256 171.528s4.669 1.749 5.835 2.451c1.166.701.816 2.1.119 2.797a6.598 6.598 0 0 1-2.92 1.403 28.7 28.7 0 0 1-3.266 0c-1.399-.119-2.683.118-3.85.118-1.166 0-4.669-.351-4.669-.351l-1.052-.701s-1.97.583-3.498 1.182c-1.529.599-1.052-.701.114-1.635 1.166-.934 4.086-3.267 4.555-3.499.468-.232 6.418-1.97 6.418-1.97l2.214.205Z" fill="#9E9E9E" stroke="#263238" stroke-miterlimit="10"/><path d="M90.005 171.993s-3.038-1.399-3.853-1.399c-.816 0-6.65 1.97-7.466 2.565-.816.595-1.636 6.186-1.053 6.537.584.35 1.053-.702 1.183-1.399.13-.697 1.753-4.437 1.753-4.437l-1.182 5.954s.469.93.934.114c.465-.815 3.384-6.418 3.617-6.769.305-.325.66-.6 1.052-.815 0 0-.584 2.568-1.052 5.019-.47 2.451-.115 3.152.587 3.266.7.115 1.048-1.517 1.398-2.332.35-.816 1.868-5.488 1.868-5.488" fill="#9E9E9E"/><path d="M90.005 171.993s-3.038-1.399-3.853-1.399c-.816 0-6.65 1.97-7.466 2.565-.816.595-1.636 6.186-1.053 6.537.584.35 1.053-.702 1.183-1.399.13-.697 1.753-4.437 1.753-4.437l-1.182 5.954s.469.93.934.114c.465-.815 3.384-6.418 3.617-6.769.305-.325.66-.6 1.052-.815 0 0-.584 2.568-1.052 5.019-.47 2.451-.115 3.152.587 3.266.7.115 1.048-1.517 1.398-2.332.35-.816 1.868-5.488 1.868-5.488" stroke="#263238" stroke-miterlimit="10"/><path d="M93.378 174.329s-3.499 3.617-3.968 4.433c-.468.815-.465.933.82.933 1.284 0 5.252-2.568 5.599-2.919.346-.351.236-1.399-.583-2.1a2.075 2.075 0 0 0-1.868-.347ZM115.229 173.927s-4.669 1.509-5.815 2.364c-1.147.855-2.802 1.797-2.443 2.085.358.287 1.509 0 1.867-.288.359-.288 2.01-.575 2.01-.575s1.938-1.151 3.447-2.081c1.509-.929 2.656-1.938.934-1.505Z" fill="#9E9E9E" stroke="#263238" stroke-miterlimit="10"/><path d="M141.001 166.024s-13.002 2.364-17.707 4.015c-4.704 1.65-6.575 2.801-8.928 4.464-2.352 1.662-7.119 4.802-6.41 5.354.709.552 3.18-1.383 3.597-1.797.418-.413 3.456-1.658 3.456-1.658l2.033-1.041s-3.062 3.771-4.165 4.728c-1.103.958-.359 1.557.473 1.281.831-.276 2.399-1.927 2.399-1.927l5.055-3.325s-2.076 2.908-3.045 3.735c-.97.827 1.107 1.525 1.524.831.418-.693 2.491-2.49 2.491-2.49s3.455-1.796 4.286-2.49c.832-.693 2.904-2.628 2.904-2.628l15.492 1.245s.969-.551.418-3.735c-.552-3.183-3.873-4.562-3.873-4.562Z" fill="#9E9E9E" stroke="#263238" stroke-miterlimit="10"/><path d="m151.513 141.54 7.608 18.818-12.312 4.287 3.459 10.098s8.841.024 15.76-.394c6.919-.418 11.773-4.59 10.666-9.566-1.108-4.977-5.256-12.175-8.578-20.752-3.321-8.578-2.293-13.692-3.814-16.32s-5.811-3.321-5.811-3.321l-2.364-.394" fill="#fff"/><path opacity=".2" d="M175.527 170.015v-1.97h1.029c.043-.13.078-.26.11-.394h-1.139v-4.929h.591c-.043-.126-.09-.26-.134-.394h-.457v-1.201a44.608 44.608 0 0 0-.394-.997v2.198h-4.137v-4.925h2.971c-.059-.13-.114-.26-.173-.394h-2.798v-4.925h.552c-.063-.13-.122-.26-.181-.394h-.371v-.823c-.13-.292-.264-.583-.394-.879v1.702h-4.137v-4.925h2.758c-.055-.13-.11-.26-.161-.394h-2.597v-4.925h.737c-.043-.13-.083-.264-.122-.394h-.615v-2.246a50.245 50.245 0 0 1-.394-1.788v4.034h-4.137v-4.925h3.972l-.071-.394h-3.901v-4.925h3.235l-.059-.394h-3.176v-4.83c-.345-.186-.7-.353-1.064-.501h-3.467v-.882l-.394-.071v.953h-1.162l-.106.394h1.268v4.937h-2.561l-.102.394h2.667v4.925h-3.967l-.107.394h4.07v4.925h-4.137v-4.673l-.394 1.494v3.152h-.835l-.102.394h.937v2.494l.394.973v-3.44h4.137v4.925h-3.546l.158.394h3.388v4.925h-1.379l.162.394h1.237v3.062l.394.973v-4.035h4.117v4.925h-3.778l.161.394h3.617v4.925h-4.137v-1.363l-.394.138v1.225h-3.522l-1.135.394h.126v4.925h-4.137v-3.546l-.394.138v3.389h-.114l.508 1.481v-1.087h4.137v6.698h.394v-6.698h4.137v6.646h.394v-6.639h4.137v6.513h.394v-6.513h4.137v6.304l.394-.031v-6.273h4.137v5.406l.394-.15v-5.256h4.137v2.475c.138-.162.272-.323.394-.489Zm-18.518-2.364h-4.137v-4.929h4.137v4.929Zm4.531 0h-4.137v-4.929h4.137v4.929Zm0-15.957h-4.137v-4.925h4.137v4.925Zm0-5.319h-4.137v-4.929h4.137v4.929Zm0-5.319h-4.137v-4.925h4.137v4.925Zm0-5.319h-4.137v-4.929h4.137v4.929Zm0-5.319h-4.137v-4.925h4.137v4.925Zm4.531 37.233h-4.137v-4.929h4.137v4.929Zm0-5.319h-4.137v-4.925h4.137v4.925Zm0-5.319h-4.137v-4.929h4.137v4.929Zm0-5.319h-4.137v-4.925h4.137v4.925Zm0-5.319h-4.137v-4.929h4.137v4.929Zm4.531 21.276h-4.137v-4.929h4.137v4.929Zm0-5.319h-4.137v-4.925h4.137v4.925Zm0-5.319h-4.137v-4.929h4.137v4.929Zm.394 10.638v-4.929h4.137v4.925l-4.137.004Z" fill="#263238"/><path d="m151.513 141.54 7.608 18.818-12.312 4.287 3.459 10.098s8.841.024 15.76-.394c6.919-.418 11.773-4.59 10.666-9.566-1.108-4.977-5.256-12.175-8.578-20.752-3.321-8.578-2.293-13.692-3.814-16.32s-5.811-3.321-5.811-3.321l-2.364-.394" stroke="#263238" stroke-miterlimit="10"/><path d="M166.528 158.443a55.149 55.149 0 0 0-7.407 1.911s5.256-3.459 8.16-3.735M170.05 158.278a7.498 7.498 0 0 0-1.647-.055" stroke="#263238" stroke-miterlimit="10"/><path d="M150.406 163.116s2.797 2.675 3.625 4.748c.827 2.072.524 7.702-.028 8.254-.551.551-10.847.484-12.541-1.631-.441-.552 2.581-1.825 1.06-4.87-1.521-3.046-2.214-3.318-2.214-3.318s-1.245-.693 1.107-2.214c2.352-1.521 7.746-2.624 8.991-.969Z" fill="#263238" stroke="#263238" stroke-miterlimit="10"/><path d="M174.932 184.447H164.72l-1.277-20.188h12.766l-1.277 20.188Z" fill="#263238" stroke="#263238" stroke-linejoin="round"/><path d="M176.776 164.29H162.88v2.939h13.896v-2.939Z" fill="#fff" stroke="#263238" stroke-linejoin="round"/><path d="M176.776 164.4H162.88l1.387-1.741h11.118l1.391 1.741ZM175.306 178.525l.509-8.041h-11.978l.508 8.041h10.961Z" fill="#fff" stroke="#263238" stroke-linejoin="round"/><path d="m116.08 185.791 12.584-3.326v1.702l-12.584 3.527v-1.903Z" fill="#263238" stroke="#263238" stroke-linejoin="round"/><path d="M128.665 182.465H62.871l-12.719 3.326h65.928l12.585-3.326Z" fill="#fff" stroke="#263238" stroke-linejoin="round"/><path d="M116.08 147.77H50.152v39.924h65.928V147.77Z" fill="#fff" stroke="#263238" stroke-linejoin="round"/><path d="M116.08 153.546c-14.341.682-22.883 13.9-35.574 22.757-11.568 8.077-25.854 9.456-30.338 9.673v1.718h65.912v-34.148Z" fill="#263238" stroke="#263238" stroke-linejoin="round"/><path d="M116.08 185.791H50.152v1.903h65.928v-1.903Z" fill="#fff" stroke="#263238" stroke-miterlimit="10"/><path d="M30.634 172.619s-5.493-8.786-1.084-13.731c4.41-4.944 11.533-2.565 13.002 2.014 1.47 4.578-1.647 12.269-1.647 12.269l-10.271-.552Z" fill="#fff" stroke="#263238" stroke-linecap="round" stroke-linejoin="round"/><path d="M30.815 162.549c-.914 0-4.393-1.281-5.492-2.928-1.1-1.647-1.289-5.311 1.832-5.311 3.12 0 4.211 5.492 4.211 5.492l.182 2.014" fill="#fff"/><path d="M30.815 162.549c-.914 0-4.393-1.281-5.492-2.928-1.1-1.647-1.289-5.311 1.832-5.311 3.12 0 4.211 5.492 4.211 5.492l.182 2.014" stroke="#263238" stroke-linecap="round" stroke-linejoin="round"/><path d="M33.632 159.129c-.82-.394-3.36-3.105-3.609-5.071-.248-1.966 1.225-5.323 4.011-3.94 2.786 1.383 1.316 6.796 1.316 6.796l-.737 1.884" fill="#fff"/><path d="M33.632 159.129c-.82-.394-3.36-3.105-3.609-5.071-.248-1.966 1.225-5.323 4.011-3.94 2.786 1.383 1.316 6.796 1.316 6.796l-.737 1.884" stroke="#263238" stroke-linecap="round" stroke-linejoin="round"/><path d="M36.957 160.051c-.457-.788-1.072-4.449-.19-6.222.883-1.773 3.972-3.751 5.517-1.048 1.544 2.703-2.675 6.383-2.675 6.383l-1.66 1.158" fill="#fff"/><path d="M36.957 160.051c-.457-.788-1.072-4.449-.19-6.222.883-1.773 3.972-3.751 5.517-1.048 1.544 2.703-2.675 6.383-2.675 6.383l-1.66 1.158" stroke="#263238" stroke-linecap="round" stroke-linejoin="round"/><path d="M38.048 166.615c-.15-.906.536-4.547 1.97-5.91 1.435-1.363 5.024-2.148 5.54.922.516 3.069-4.728 5.067-4.728 5.067l-1.97.512" fill="#fff"/><path d="M38.048 166.615c-.15-.906.536-4.547 1.97-5.91 1.435-1.363 5.024-2.148 5.54.922.516 3.069-4.728 5.067-4.728 5.067l-1.97.512" stroke="#263238" stroke-linecap="round" stroke-linejoin="round"/><path d="m25.725 157.411.618.973M27.493 159.799l.97.791M26.434 155.555l.969 1.415M28.73 158.12l1.06 1.943M31.201 153.436l.355 1.059M32.438 156.438l.62.886M32.174 151.316l.796 1.765M29.081 163.774l.268 1.588M29.877 166.863l.355 1.328M30.76 163.861l.354 1.765M31.91 166.863l.264 1.328M32.528 161.564l.528 2.474M33.766 166.422l.086 1.15M34.735 160.768l.442 2.297M35.177 165.452l.177 2.384M37.3 161.65v1.947M37.032 166.071l.09 1.501M39.507 152.462l-.442 1.064M38.888 154.759l-.442 1.505M41.448 154.495l-.705 1.415M39.242 157.501l-.796.883M37.564 154.409l-.264 1.146M41.449 160.768l-.97 1.591M39.861 163.329l-.532 1.414M40.657 165.452l1.588-.886M43.218 160.768l-.796 1.327M44.014 162.269l-1.06.796" stroke="#fff" stroke-linecap="round" stroke-linejoin="round"/><path d="M42.87 169.554H27.853v15.019H42.87v-15.019Z" fill="#263238" stroke="#263238" stroke-linecap="round" stroke-linejoin="round"/></svg>