<svg aria-hidden="true" style="width:0;height:0;position:absolute;overflow:hidden" xmlns="http://www.w3.org/2000/svg"><defs><symbol id="icon-light" viewBox="0 0 32 32"><path d="M18.621 19.939a5.765 5.765 0 0 0 3.104-2.015c.975-1.228 1.407-2.761 1.217-4.317s-.979-2.941-2.221-3.898c-1.203-.928-2.704-1.34-4.224-1.161s-2.884.928-3.84 2.11a5.757 5.757 0 0 0-1.292 3.534c-.042 2.108-.769 4.155-2.046 5.764l-1.397 1.76a1.81 1.81 0 0 0 .292 2.54l1.317 1.045a1.81 1.81 0 0 0 2.54-.292l1.397-1.76c1.291-1.626 3.07-2.773 5.155-3.308zm-6.513-5.734a5.013 5.013 0 0 1 1.127-3.08c1.716-2.122 4.869-2.493 7.03-.827 1.083.836 1.771 2.042 1.937 3.399s-.211 2.694-1.061 3.764a5.024 5.024 0 0 1-2.705 1.757c-2.197.563-4.086 1.756-5.471 3.453l-2.977-2.363c1.324-1.718 2.076-3.879 2.121-6.102zm-3.447 7.774.188-.236 2.711 2.708-.073.092a1.054 1.054 0 0 1-.126.132l-2.699-2.697zm.654-.824.21-.265 2.982 2.367-.481.607-2.711-2.708zm-.64 2.515a1.066 1.066 0 0 1-.387-1.009l2.283 2.282a1.055 1.055 0 0 1-.58-.227l-1.317-1.045z"/><path d="M13.94 12.46c.098-.171.212-.336.338-.492a.373.373 0 0 0-.579-.469c-.15.186-.286.384-.404.588a.374.374 0 0 0 .137.509.373.373 0 0 0 .509-.137zM12.139 18.254a.37.37 0 0 0 .581-.163c.457-1.24.703-2.539.729-3.86a3.79 3.79 0 0 1 .069-.648.372.372 0 1 0-.731-.143c-.05.254-.078.515-.083.776a11.09 11.09 0 0 1-.683 3.617.373.373 0 0 0 .118.421zM19.446 17.743a.373.373 0 0 0-.504-.152 3.726 3.726 0 0 1-.839.326.372.372 0 0 0 .185.721c.352-.09.69-.222 1.006-.392a.373.373 0 0 0 .152-.504zM19.489 11.393a3.729 3.729 0 0 1 .372 5.497.373.373 0 0 0 .539.515 4.475 4.475 0 0 0-.447-6.595.372.372 0 1 0-.463.583zM21.185 9.256a.372.372 0 0 0 .523-.06l1.297-1.634a.372.372 0 1 0-.583-.463l-1.297 1.634a.372.372 0 0 0 .06.523zM17.776 7.49a.373.373 0 1 0 .737.11l.306-2.063a.372.372 0 1 0-.737-.109l-.306 2.063zM20.778 22.574l-.766-1.939a.373.373 0 0 0-.693.273l.766 1.939a.374.374 0 0 0 .484.21.373.373 0 0 0 .21-.483zM13.487 6.149l.766 1.939a.374.374 0 0 0 .484.21.373.373 0 0 0 .21-.483l-.766-1.939a.373.373 0 0 0-.693.273zM24.396 19.651l-1.634-1.297a.372.372 0 1 0-.463.583l1.634 1.297a.372.372 0 1 0 .463-.583zM12.027 10.309a.372.372 0 0 0-.06-.523l-1.634-1.297a.372.372 0 1 0-.463.583l1.634 1.297a.372.372 0 0 0 .523-.06zM23.718 15.666c.049.039.11.067.177.076l2.063.306a.372.372 0 1 0 .109-.737l-2.063-.306a.372.372 0 0 0-.286.661zM10.37 12.982l-2.063-.306a.372.372 0 1 0-.109.737l2.063.306a.372.372 0 1 0 .109-.737zM23.196 11.966a.374.374 0 0 0 .484.21l1.939-.766a.373.373 0 0 0-.273-.693l-1.939.766a.373.373 0 0 0-.21.483z"/></symbol><symbol id="icon-arrow-up" viewBox="0 0 32 32"><path d="m27.414 12.586-10-10a2 2 0 0 0-2.828 0l-10 10a2 2 0 1 0 2.828 2.828L14 8.828V28a2 2 0 1 0 4 0V8.828l6.586 6.586c.39.39.902.586 1.414.586s1.024-.195 1.414-.586a2 2 0 0 0 0-2.828z"/></symbol></defs></svg>