<svg width="85" height="85" viewBox="0 0 72 72" fill="none" xmlns="http://www.w3.org/2000/svg"><g clip-path="url('#clip0_590_8264')" fill="#000"><path d="M41.897 44.862a12.957 12.957 0 0 0 6.983-4.534 12.98 12.98 0 0 0 2.737-9.714 12.983 12.983 0 0 0-4.998-8.772c-2.708-2.087-6.083-3.015-9.505-2.613-3.421.403-6.49 2.089-8.64 4.747a12.95 12.95 0 0 0-2.907 7.95c-.095 4.744-1.73 9.35-4.603 12.97l-3.143 3.96a4.072 4.072 0 0 0 .657 5.714l2.963 2.352a4.072 4.072 0 0 0 5.715-.657l3.143-3.96c2.905-3.66 6.907-6.24 11.598-7.443ZM27.243 31.96a11.288 11.288 0 0 1 2.535-6.93c3.86-4.774 10.956-5.608 15.818-1.86a11.326 11.326 0 0 1 4.357 7.647 11.316 11.316 0 0 1-2.386 8.47 11.295 11.295 0 0 1-6.087 3.951c-4.943 1.268-9.192 3.951-12.31 7.769l-6.699-5.318c2.98-3.866 4.672-8.728 4.772-13.729Zm-7.756 17.493.422-.532 6.099 6.094-.165.208c-.087.11-.183.207-.284.297l-6.072-6.067Zm1.47-1.853.474-.596 6.709 5.325-1.083 1.365-6.1-6.094Zm-1.437 5.657a2.392 2.392 0 0 1-.87-2.27l5.138 5.133a2.377 2.377 0 0 1-1.305-.51l-2.963-2.353Z"/><path d="M31.364 28.034c.222-.384.477-.756.76-1.106a.838.838 0 1 0-1.303-1.054c-.338.418-.644.863-.91 1.323a.838.838 0 0 0 1.453.837ZM27.312 41.072a.838.838 0 0 0 1.308-.366 26.591 26.591 0 0 0 1.64-8.685c.01-.491.063-.982.156-1.457a.838.838 0 1 0-1.645-.323c-.112.57-.175 1.158-.187 1.746a24.92 24.92 0 0 1-1.537 8.139.838.838 0 0 0 .265.946ZM43.753 39.923a.838.838 0 0 0-1.135-.342 8.388 8.388 0 0 1-1.887.735.838.838 0 1 0 .417 1.623c.792-.203 1.553-.5 2.264-.881a.838.838 0 0 0 .341-1.135ZM43.85 25.635c3.62 2.873 4.226 8.156 1.353 11.775a8.641 8.641 0 0 1-.517.594.838.838 0 0 0 1.212 1.158c.215-.225.423-.464.618-.71 3.448-4.343 2.72-10.682-1.624-14.13a.838.838 0 1 0-1.042 1.313ZM47.667 20.826a.838.838 0 0 0 1.177-.135l2.919-3.676a.838.838 0 0 0-1.313-1.042l-2.919 3.676a.838.838 0 0 0 .136 1.177ZM39.996 16.852a.838.838 0 1 0 1.658.246l.69-4.64a.838.838 0 0 0-1.659-.247l-.689 4.64ZM46.75 50.792l-1.724-4.364a.838.838 0 1 0-1.559.616l1.724 4.364a.838.838 0 1 0 1.559-.616ZM30.346 13.836 32.07 18.2a.834.834 0 0 0 1.088.471.838.838 0 0 0 .471-1.087l-1.724-4.364a.838.838 0 1 0-1.559.616ZM54.89 44.215l-3.676-2.918a.838.838 0 0 0-1.042 1.313l3.676 2.918a.838.838 0 0 0 1.042-1.313ZM27.06 23.195a.838.838 0 0 0-.134-1.177L23.249 19.1a.838.838 0 0 0-1.042 1.313l3.676 2.918a.838.838 0 0 0 1.178-.136ZM53.366 35.248c.112.088.247.15.398.172l4.64.689a.838.838 0 1 0 .247-1.659l-4.64-.689a.838.838 0 0 0-.645 1.487ZM23.333 29.209l-4.641-.69a.838.838 0 0 0-.247 1.659l4.642.689a.838.838 0 0 0 .246-1.658ZM52.19 26.924a.838.838 0 0 0 1.088.471l4.364-1.724a.838.838 0 0 0-.616-1.559l-4.364 1.725a.838.838 0 0 0-.471 1.087Z"/></g><defs><clipPath id="clip0_590_8264"><path fill="#fff" transform="rotate(38.441 15.837 45.426)" d="M0 0h50.947v50.947H0z"/></clipPath></defs></svg>