<svg width="210" height="210" fill="none" xmlns="http://www.w3.org/2000/svg"><path d="M200.621 96.953c-2.201-10.765-6.065-21.273-10.659-30.933-7.922-16.666-20.9-30.505-37.502-38.72-40.74-20.16-70.14-11.76-86.1 4.62C50.4 48.3 55.02 76.44 37.8 88.62s-29.4 17.64-30.24 39.9c-.84 22.26 10.08 39.06 27.72 44.52 17.64 5.46 44.1 23.1 97.02 13.02 52.92-10.08 65.94-38.22 69.3-58.38 1.68-10.143 1.1-20.551-.979-30.727Z" fill="#CBCBCB"/><path opacity=".7" d="M200.621 96.953c-2.201-10.765-6.065-21.273-10.659-30.933-7.922-16.666-20.9-30.505-37.502-38.72-40.74-20.16-70.14-11.76-86.1 4.62C50.4 48.3 55.02 76.44 37.8 88.62s-29.4 17.64-30.24 39.9c-.84 22.26 10.08 39.06 27.72 44.52 17.64 5.46 44.1 23.1 97.02 13.02 52.92-10.08 65.94-38.22 69.3-58.38 1.68-10.143 1.1-20.551-.979-30.727Z" fill="#fff"/><path d="M76.575 35.498h-3.806v16.863h3.806V35.498Z" fill="#C9C9C9" stroke="#263238" stroke-linecap="round" stroke-linejoin="round"/><path d="M76.575 38.035h-3.806v1.647h3.806v-1.647ZM76.575 48.497h-3.806v1.647h3.806v-1.647Z" fill="#fff" stroke="#263238" stroke-linecap="round" stroke-linejoin="round"/><path d="M81.015 35.498H75.69v16.863h5.326V35.498Z" fill="#878787" stroke="#263238" stroke-linecap="round" stroke-linejoin="round"/><path d="M80.636 35.498h-3.805v16.863h3.805V35.498Z" fill="#C9C9C9" stroke="#263238" stroke-linecap="round" stroke-linejoin="round"/><path d="M80.636 38.035h-3.805v1.647h3.805v-1.647ZM80.636 48.497h-3.805v1.647h3.805v-1.647Z" fill="#fff" stroke="#263238" stroke-linecap="round" stroke-linejoin="round"/><path d="M85.072 35.498h-5.326v16.863h5.326V35.498Z" fill="#878787" stroke="#263238" stroke-linecap="round" stroke-linejoin="round"/><path d="M84.693 35.498h-3.805v16.863h3.805V35.498Z" fill="#C9C9C9" stroke="#263238" stroke-linecap="round" stroke-linejoin="round"/><path d="M84.693 38.035h-3.805v1.647h3.805v-1.647ZM84.693 48.497h-3.805v1.647h3.805v-1.647Z" fill="#fff" stroke="#263238" stroke-linecap="round" stroke-linejoin="round"/><path d="M89.128 35.498h-5.325v16.863h5.325V35.498Z" fill="#C9C9C9" stroke="#263238" stroke-linecap="round" stroke-linejoin="round"/><path d="M92.598 52.534h8.937l2.377-2.15H92.598v2.15Z" fill="#fff" stroke="#263238" stroke-linecap="round" stroke-linejoin="round"/><path d="m102.9 52.643-.285-.492-10.202-.02.294.512H102.9Z" fill="#fff" stroke="#263238" stroke-linecap="round" stroke-linejoin="round"/><path d="m87.424 35.85-3.294 1.904 8.442 14.598 3.294-1.904-8.442-14.598Z" fill="#C9C9C9" stroke="#263238" stroke-linecap="round" stroke-linejoin="round"/><path d="M88.695 38.04 85.4 39.945l.825 1.425 3.294-1.905-.825-1.425ZM93.936 47.096 90.642 49l.824 1.425 3.294-1.905-.824-1.425Z" fill="#fff" stroke="#263238" stroke-linecap="round" stroke-linejoin="round"/><path d="m103.854 50.53-8.077-.02-8.442-14.6 8.077.021 8.442 14.6Z" fill="#C9C9C9" stroke="#263238" stroke-linecap="round" stroke-linejoin="round"/><path d="M108.255 43.995s-1.47-.525-1.89-2.835c-.42-2.31-1.155-5.565-.315-6.3.84-.735 2.415-1.155 2.625.315.21 1.47-.105 4.305.21 4.935.315.63 1.365.21 1.365-1.05 0-2.075-.84-4.2-.542-6.3.42-2.902 3.36-3.221 3.675 0 .177 1.78.227 3.6.227 5.389 0 .735 1.26 1.155 1.155-.63-.076-1.26.84-2.73 2.1-2.31 1.26.42.21 5.985-.21 6.93-.42.945-3.045 1.121-3.045 1.121v2.415l-3.15.105-.105-2.415c-.641.37-1.36.587-2.1.63Z" fill="#CBCBCB" stroke="#263238" stroke-linecap="round" stroke-linejoin="round"/><path d="M111.091 39.392c.038.525.063.84.063.84M111.3 31.248s-.689.479-.638 1.915c.033.874.201 3.293.332 5.061M112.484 36.2l.11 3.515M114.022 42a5.352 5.352 0 0 1-.735.063M116.214 36.095a3.23 3.23 0 0 0-.373 1.49c0 .84.054 3.197-.479 3.835a1.394 1.394 0 0 1-.466.336M107.101 40.82a3.4 3.4 0 0 0 .873 1.68 1.547 1.547 0 0 0 1.865.05M107 35.138s-1.063 0-.693 1.86c.159.785.306 1.752.495 2.663M110.994 42.218l.214 2.29" stroke="#263238" stroke-linecap="round" stroke-linejoin="round"/><path d="m116.446 44.73-.382 3.133-.261 2.134-.302 2.482h-7.556l-.302-2.482-.261-2.134L107 44.73h9.446Z" fill="#fff" stroke="#263238" stroke-linecap="round" stroke-linejoin="round"/><path d="m116.063 47.863-.26 2.134h-8.161l-.26-2.134h8.681Z" fill="#CBCBCB" stroke="#263238" stroke-linecap="round" stroke-linejoin="round"/><path d="M120.595 52.479H72.098v3.213h48.497v-3.213Z" fill="#fff" stroke="#263238" stroke-linecap="round" stroke-linejoin="round"/><path d="M120.594 52.479h-11.18v3.213h11.18v-3.213Z" fill="#fff" stroke="#263238" stroke-linecap="round" stroke-linejoin="round"/><path d="M108.327 55.705c5.196 1.915 4.259 5.535 4.259 5.535h4.918v-5.535h-9.177Z" fill="#919191" stroke="#263238" stroke-linecap="round" stroke-linejoin="round"/><path d="M109.986 55.705c5.192 1.915 4.255 5.535 4.255 5.535h4.922v-5.535h-9.177Z" fill="#fff" stroke="#263238" stroke-linecap="round" stroke-linejoin="round"/><path d="M75.042 55.705c5.195 1.915 4.259 5.535 4.259 5.535h4.918v-5.535h-9.177Z" fill="#919191" stroke="#263238" stroke-linecap="round" stroke-linejoin="round"/><path d="M76.701 55.705c5.191 1.915 4.255 5.535 4.255 5.535h4.922v-5.535h-9.177Z" fill="#fff" stroke="#263238" stroke-linecap="round" stroke-linejoin="round"/><path d="M188.177 36.099h-43.495v60.38h43.495v-60.38Z" fill="#919191" stroke="#263238" stroke-linecap="round" stroke-linejoin="round"/><path d="M186.291 38.72h-39.72v55.137h39.72V38.72Z" fill="#CBCBCB"/><path opacity=".5" d="M186.291 38.72h-39.72v55.137h39.72V38.72Z" fill="#fff"/><path d="M155.303 89.67a16.38 16.38 0 0 1-3.973 4.2h34.961V38.72h-6.443l-.84.264c-6.3 1.987-12.81 7.737-16.502 18.186" stroke="#263238" stroke-linecap="round" stroke-linejoin="round"/><path d="M161.893 59.002a59.742 59.742 0 0 0-2.411 15.33c-.231 6.233-1.558 10.714-3.331 13.935M182.406 52.714c-5.775 3.36-12.499 9.005-15.011 17.661-1.348 4.62-.084 8.787 2.415 12.352M171.163 84.466c3.465 4.057 8.4 7.25 12.394 9.396h2.734V50.677c-.781.365-1.612.777-2.478 1.26M153.174 53.096c3.041-6.199 3.36-11.117 3.011-14.376h-9.605v25.225c1.42-2.02 3.158-4.72 5.258-8.341.131-.223.252-.42.374-.655M156.937 76.973c-.466 3.054-1.869 5.271-3.524 5.271-2.037 0-3.691-3.36-3.691-7.518 0-4.158 1.654-7.518 3.691-7.518 2.038 0 3.692 3.36 3.692 7.518M158.689 59.296c0 1.6-.706 2.902-1.583 2.902-.878 0-1.58-1.302-1.58-2.902s.706-2.903 1.58-2.903c.873 0 1.583 1.298 1.583 2.903Z" stroke="#263238" stroke-linecap="round" stroke-linejoin="round"/><path d="M178.841 71.555c1.524.727 2.52 1.995 2.52 3.436 0 2.255-2.478 4.087-5.54 4.087s-5.536-1.832-5.536-4.087 2.478-4.09 5.536-4.09c.488-.001.974.047 1.453.142" stroke="#263238" stroke-linecap="round" stroke-linejoin="round"/><path d="M178.156 74.991c0 .945-1.037 1.714-2.323 1.714-1.285 0-2.322-.769-2.322-1.714s1.041-1.718 2.322-1.718c1.281 0 2.323.769 2.323 1.718ZM181.902 64.57c0 1.311-1.298 2.374-2.902 2.374-1.605 0-2.902-1.063-2.902-2.373 0-1.31 1.297-2.373 2.902-2.373 1.604 0 2.902 1.062 2.902 2.373ZM160.931 51.383c1.093 0 1.979-2.185 1.979-4.88 0-2.696-.886-4.881-1.979-4.881-1.092 0-1.978 2.185-1.978 4.88 0 2.696.886 4.88 1.978 4.88ZM166.341 88.444a2.777 2.777 0 0 1-1.711 2.56 2.774 2.774 0 0 1-3.78-2.02 2.77 2.77 0 0 1 2.719-3.313 2.773 2.773 0 0 1 2.772 2.772ZM179.265 47.292a1.72 1.72 0 0 1-2.052 1.69 1.72 1.72 0 0 1-1.351-1.352 1.715 1.715 0 0 1 .733-1.764 1.718 1.718 0 0 1 2.67 1.426ZM168.45 59.426a.931.931 0 0 1-.568.856.924.924 0 1 1-.003-1.707.921.921 0 0 1 .571.85v0Z" stroke="#263238" stroke-linecap="round" stroke-linejoin="round"/><path d="M186.291 38.72h-39.72v55.137h39.72V38.72Z" stroke="#263238" stroke-linecap="round" stroke-linejoin="round"/><path d="M121.377 117.344h-10.79v4.061h10.79v-4.061Z" fill="#263238" stroke="#263238" stroke-linecap="round" stroke-linejoin="round"/><path d="M135.853 117.957H92.908l2.033-33.29h42.949l-2.037 33.29Z" fill="#919191" stroke="#263238" stroke-linecap="round" stroke-linejoin="round"/><path d="M134.623 117.957H91.678l2.032-33.29h42.946l-2.033 33.29Z" fill="#263238" stroke="#263238" stroke-linecap="round" stroke-linejoin="round"/><path d="M132.351 116.105H94.177l1.806-29.59h38.174l-1.806 29.59Z" fill="#fff" stroke="#263238" stroke-linecap="round" stroke-linejoin="round"/><path d="M121.246 111.695h-25.93l1.39-22.802h25.935l-1.395 22.802Z" fill="#919191" stroke="#263238" stroke-linecap="round" stroke-linejoin="round"/><path d="M105.546 101.9s-5.401 2.138-5.434 2.714c-.034.575-1.093 7.081-1.093 7.081h16.061l-1.352-7.493-5.943-2.47-2.239.168Z" fill="#fff" stroke="#263238" stroke-linecap="round" stroke-linejoin="round"/><path d="M105.705 100.582a2.817 2.817 0 0 0-1.104.575c-.42.42-.933 1.81-.933 1.81l-.021 1.647 2.13-1.151 2.163-.143 2.024 1.894.261-2.881s-.311-1.646-.966-1.73c-.656-.084-3.554-.021-3.554-.021Z" fill="#fff" stroke="#263238" stroke-linecap="round" stroke-linejoin="round"/><path d="m105.639 99.02-.092 2.88 1.272 2.058 2.105-2.142.327-2.633-3.612-.164Z" fill="#fff" stroke="#263238" stroke-linecap="round" stroke-linejoin="round"/><path d="M110.83 95.65c-.151 2.416-1.756 5.343-3.516 5.343-1.759 0-3.007-2.94-2.86-5.342.147-2.403 1.68-4.372 3.453-4.372 1.772 0 3.07 1.961 2.923 4.372Z" fill="#fff" stroke="#263238" stroke-linecap="round" stroke-linejoin="round"/><path d="M104.424 95.97s-.566-1.478-.802-.328c-.235 1.151.924 2.386.924 2.386l-.122-2.058ZM110.83 95.65s1.39-.583.983.652a2.436 2.436 0 0 1-1.412 1.562l.429-2.213ZM107.142 95.97a1.067 1.067 0 0 0-.289-.814 1.06 1.06 0 0 0-.795-.337 1.259 1.259 0 0 0-1.222 1.151 1.08 1.08 0 0 0 1.084 1.155 1.26 1.26 0 0 0 1.222-1.155Z" fill="#fff" stroke="#263238" stroke-linecap="round" stroke-linejoin="round"/><path d="m109.94 95.97 1.256-.327" stroke="#263238" stroke-linecap="round" stroke-linejoin="round"/><path d="M109.94 95.97a1.079 1.079 0 0 0-.287-.812 1.082 1.082 0 0 0-.793-.339 1.26 1.26 0 0 0-1.226 1.151 1.08 1.08 0 0 0 1.083 1.155 1.257 1.257 0 0 0 1.223-1.155Z" fill="#fff" stroke="#263238" stroke-linecap="round" stroke-linejoin="round"/><path d="M107.622 90.783s-1.26-.655-2.205-.244c-.945.412-1.643 2.634-1.596 3.21.148.753.35 1.496.604 2.221l1-2.881 2.621-1.151-.424-1.155Z" fill="#263238" stroke="#263238" stroke-linecap="round" stroke-linejoin="round"/><path d="M106.353 91.363s2.075-1.647 3.755-.84a2.524 2.524 0 0 1 1.483 2.717c-.026.42-.059 2.302-.059 2.302l-1 .168-.491-1.55a14.18 14.18 0 0 1-1.655-.781s-2.222-.29-2.033-2.016Z" fill="#263238" stroke="#263238" stroke-linecap="round" stroke-linejoin="round"/><path d="m107.142 95.97-.147 2.39h.576" fill="#fff"/><path d="m107.142 95.97-.147 2.39h.576M106.693 99.263h1.235M106.819 103.958l-.458 7.489M113.72 104.202s-1.718 3.872-1.768 4.695a87.418 87.418 0 0 1-.244 2.634M100.111 104.614s1.71 2.965 1.932 3.36c.223.394-.05 3.54-.05 3.54" stroke="#263238" stroke-linecap="round" stroke-linejoin="round"/><path d="m114.866 107.003.567-2.553.966-.987.912-1.483h.411l-.504 1.567 1.277-.744.823-1.314.479.243-1.176 3.05-1.865.903-.323 1.234-1.567.084Z" fill="#fff" stroke="#263238" stroke-linecap="round" stroke-linejoin="round"/><path d="m116.463 111.695.155-5.103-1.873-.332-1.478 5.435h3.196Z" fill="#fff" stroke="#263238" stroke-linecap="round" stroke-linejoin="round"/><path d="M121.133 113.589H95.198l.118-1.894h25.931l-.114 1.894Z" fill="#fff" stroke="#263238" stroke-linecap="round" stroke-linejoin="round"/><path d="M96.257 112.438h23.793" stroke="#263238" stroke-linecap="round" stroke-linejoin="round"/><path d="M132.393 94.979h-8.728l.37-6.01h8.727l-.369 6.01Z" fill="#CBCBCB" stroke="#263238" stroke-linecap="round" stroke-linejoin="round"/><path d="M132.393 94.979h-8.728l.063-.987h8.728l-.063.987ZM129.574 91.623l-2.268-1.357-.163 2.714 2.431-1.357Z" fill="#fff" stroke="#263238" stroke-linecap="round" stroke-linejoin="round"/><path d="M131.825 104.282h-8.727l.365-6.006h8.728l-.366 6.006Z" fill="#CBCBCB" stroke="#263238" stroke-linecap="round" stroke-linejoin="round"/><path d="M131.825 104.282h-8.727l.063-.987h8.723l-.059.987ZM129.008 100.93l-2.268-1.356-.164 2.713 2.432-1.357Z" fill="#fff" stroke="#263238" stroke-linecap="round" stroke-linejoin="round"/><path d="M131.255 113.589h-8.724l.366-6.01h8.727l-.369 6.01Z" fill="#CBCBCB" stroke="#263238" stroke-linecap="round" stroke-linejoin="round"/><path d="M131.255 113.589h-8.724l.059-.987h8.728l-.063.987ZM128.437 110.233l-2.264-1.356-.168 2.713 2.432-1.357Z" fill="#fff" stroke="#263238" stroke-linecap="round" stroke-linejoin="round"/><path d="M123.69 95.97h8.476M123.628 96.961h8.48M123.115 105.357h8.48M123.057 106.344h8.479" stroke="#263238" stroke-linecap="round" stroke-linejoin="round"/><path d="M119.356 121.405h-6.376a2.399 2.399 0 0 1 2.399-2.398h1.57a2.4 2.4 0 0 1 2.399 2.398h.008Z" fill="#fff" stroke="#263238" stroke-linecap="round" stroke-linejoin="round"/><path d="M109.944 120.099H78.772v1.306h31.172v-1.306Z" fill="#919191" stroke="#263238" stroke-linecap="round" stroke-linejoin="round"/><path d="M109.936 120.099h-7.833v1.306h7.833v-1.306Z" fill="#fff" stroke="#263238" stroke-linecap="round" stroke-linejoin="round"/><path d="M65.994 57.385V32.567M65.994 181.591V59.854" stroke="#263238" stroke-linecap="round" stroke-linejoin="round"/><path d="m122.67 130.116 3.78 50.959a.733.733 0 0 0 1.257.436.74.74 0 0 0 .209-.499l-.567-50.896h-4.679Z" fill="#919191" stroke="#263238" stroke-linecap="round" stroke-linejoin="round"/><path d="m125.521 130.116 1.995 51.547a.738.738 0 0 0 .387-.651l-.555-50.896h-1.827Z" fill="#fff" stroke="#263238" stroke-linecap="round" stroke-linejoin="round"/><path d="m146.43 130.116 3.78 50.959a.734.734 0 0 0 1.465-.063l-.567-50.896h-4.678Z" fill="#919191" stroke="#263238" stroke-linecap="round" stroke-linejoin="round"/><path d="m149.059 130.116 2.326 51.471a.724.724 0 0 0 .278-.575l-.555-50.896h-2.049Z" fill="#fff" stroke="#263238" stroke-linecap="round" stroke-linejoin="round"/><path d="m83.798 130.671-3.78 50.4a.729.729 0 0 1-.73.68.727.727 0 0 1-.527-.209.733.733 0 0 1-.221-.522l.559-50.484 4.7.135ZM60.061 130.671l-3.78 50.4a.729.729 0 0 1-1.25.46.74.74 0 0 1-.212-.523l.559-50.484 4.683.147Z" fill="#263238" stroke="#263238" stroke-linecap="round" stroke-linejoin="round"/><path d="M152.499 122.59H53.954v7.938H152.5v-7.938Z" fill="#919191" stroke="#263238" stroke-linecap="round" stroke-linejoin="round"/><path d="M152.498 122.59h-28.241v7.938h28.241v-7.938Z" fill="#fff" stroke="#263238" stroke-linecap="round" stroke-linejoin="round"/><path d="M152.499 123.85H53.954v2.188H152.5v-2.188Z" fill="#263238" stroke="#263238" stroke-linecap="round" stroke-linejoin="round"/><path d="M153.918 121.452H52.534v2.654h101.384v-2.654Z" fill="#919191" stroke="#263238" stroke-linecap="round" stroke-linejoin="round"/><path d="M153.913 121.452h-27.842v2.654h27.842v-2.654ZM124.022 72.24h-13.684a2.686 2.686 0 0 0-2.688 2.688v5.04a2.693 2.693 0 0 0 .786 1.902 2.693 2.693 0 0 0 1.902.786h7.166l-2.684 7.497 5.141-7.497h4.061a2.682 2.682 0 0 0 2.688-2.688v-5.04a2.688 2.688 0 0 0-2.688-2.688Z" fill="#fff" stroke="#263238" stroke-linecap="round" stroke-linejoin="round"/><path d="M113.514 78.594a.978.978 0 1 0 0-1.956.978.978 0 0 0 0 1.956ZM117.181 78.594a.978.978 0 1 0 0-1.956.978.978 0 0 0 0 1.956ZM121.821 77.616a.976.976 0 0 0-1.171-.96.98.98 0 0 0-.348 1.776.979.979 0 0 0 1.519-.816Z" fill="#263238"/><path d="M189 181.86h11.34M10.08 181.86h173.04" stroke="#263238" stroke-linecap="round" stroke-linejoin="round"/><path d="M76.709 107.638c-1.231-2.1-4.851-10.185-4.851-10.185.109-.864.286-1.718.529-2.554.298-.84 1.05-3.385.899-3.914-.152-.53-2.331-1.504-2.554-1.58-.223-.075.298-1.352-.53-1.654-.827-.303-1.125.15-1.125.15l-.315 2.1-.966 1.513a12.212 12.212 0 0 0-1.26-.84c-.676-.378-2.255-.53-2.33.075-.076.605 1.26 1.126 1.725 1.504.467.378 1.055 2.18 1.584 2.71.48.524.932 1.075 1.352 1.65l.303.978s1.029 9.908 1.15 12.373c.122 2.466.492 8.988 1.231 9.971.74.983.865 1.605 2.94.865 2.075-.739 2.461-1.726 2.94-3.943.479-2.218.508-7.128-.722-9.219Z" fill="#fff" stroke="#263238" stroke-linecap="round" stroke-linejoin="round"/><path d="M77.448 116.869c.491-2.213.491-7.14-.74-9.24a23.198 23.198 0 0 1-.482-.882c-2.785-.81-5.431.513-5.431.513l-.672.294a75.55 75.55 0 0 1 .18 2.415c.127 2.461.492 8.988 1.231 9.97.74.983.865 1.605 2.94.866 2.075-.74 2.478-1.718 2.974-3.936Z" fill="#CBCBCB" stroke="#263238" stroke-linecap="round" stroke-linejoin="round"/><path d="M67.73 74.34c.302 1.114.472 2.26.503 3.415 0 1.642-.504 2.654.256 3.158s1.39.508 1.26 1.52a2.718 2.718 0 0 1-.634 1.517s-.252 5.182-.504 5.69c-.252.509-3.54-.126-4.3-.256-.76-.13-2.907.886-4.302-1.894-1.394-2.78-.252-6.955 2.277-9.105a61.872 61.872 0 0 1 5.443-4.045Z" fill="#fff" stroke="#263238" stroke-linecap="round" stroke-linejoin="round"/><path d="M68.233 77.734s-.684-.513-1.046.386M67.62 79.825a3.084 3.084 0 0 0 .092 1.529M68.88 85.764a.84.84 0 0 1-1.08-.63" stroke="#263238" stroke-linecap="round" stroke-linejoin="round"/><path d="M70.311 109.536s-.42 1.923-.793 2.94c-.374 1.016-7.077 2.881-9.996 3.267a49.7 49.7 0 0 1-5.796.383l.184 5.317s5.654.113 6.053 0c.399-.114 9.916-4.368 9.916-4.368l4.107-.538s1.727-.42 1.794-1.76c.067-1.339-1.458-5.149-2.15-5.741-.694-.592-2.155-2.163-3.033-1.197-.878.966-.286 1.697-.286 1.697Z" fill="#fff" stroke="#263238" stroke-linecap="round" stroke-linejoin="round"/><path d="M57.708 119.083c0-2.298.588-2.357 1.26-3.268a50.478 50.478 0 0 1-5.229.311l-.138 4.88s3.095.286 4.98.42c-.155.24-.873-.865-.873-2.343Z" fill="#CBCBCB" stroke="#263238" stroke-linecap="round" stroke-linejoin="round"/><path d="M75.96 129.415a19.69 19.69 0 0 0-8.257-5.515l-7.375 3.146a16.846 16.846 0 0 0-2.26-3.931l-1.377-1.68.886-4.818s5.309-3.637 5.994-5.212l.025-.05c1.067 1.65 5.695 8.794 6.564 9.487.983.79 3.932.887 5.208-.294 1.277-1.18 1.87-1.965 1.575-3.733 0 0-1.965-4.23-3.049-6.099-1.083-1.869-3.44-8.551-4.62-10.617-.84-1.479-1.188-2.52-1.785-3.218a11.664 11.664 0 0 0-1.457-1.99c-1.18-1.26-4.427-1.576-5.116-1.87-.689-.293-.785-.394-4.716-1.57-3.932-1.176-8.358-1.87-11.504.588 0 0-4.225 5.014-5.88 13.272-1.655 8.257-1.773 16.615-1.966 18.089-.193 1.474-1.869 8.652-2.36 12.781-.492 4.128 3.818 8.274 6.472 9.559 2.654 1.285 14.057 1.474 20.744 0 6.686-1.474 17.304-8.161 17.304-8.161s.39-4.132-3.05-8.164Z" fill="#CBCBCB" stroke="#263238" stroke-linecap="round" stroke-linejoin="round"/><path d="m58.578 111.25-1.349-.047M58.07 109.103a40.463 40.463 0 0 1 5.501 2.319l-3.46-.118" stroke="#263238" stroke-linecap="round" stroke-linejoin="round"/><path d="M76.335 111.586c.388.609.627 1.301.697 2.02 0 .928.155 2.171-.231 1.785-.386-.387-.546-1.709-.546-1.709l.08-2.096Z" fill="#fff" stroke="#263238" stroke-linecap="round" stroke-linejoin="round"/><path d="M74.008 110.502s1.453-.79 2.1.159c.647.95.474 2.844 0 3.78-.475.937-1.017.042-.95-.789.068-.832-1.15-3.15-1.15-3.15Z" fill="#fff" stroke="#263238" stroke-linecap="round" stroke-linejoin="round"/><path d="M73.462 109.494s1.457-.79 2.1.159c.642.95.47 2.84 0 3.78-.47.941-1.016.042-.95-.789.068-.832-1.15-3.15-1.15-3.15Z" fill="#fff" stroke="#263238" stroke-linecap="round" stroke-linejoin="round"/><path d="M72.794 108.406s1.457-.789 2.1.16c.642.949.474 2.843 0 3.78-.475.936-1.017.042-.95-.79.068-.831-1.15-3.15-1.15-3.15Z" fill="#fff" stroke="#263238" stroke-linecap="round" stroke-linejoin="round"/><path d="M69.107 70.396a8.273 8.273 0 0 1-1.126 4.301c-2.15 3.289-4.17 2.906-5.04 5.565-.87 2.659-2.167 5.418-.781 6.955 1.386 1.537 2.52.63 2.52.63s.886 2.277-1.39 4.553-6.195 1.39-7.207 1.012a6.72 6.72 0 0 1-1.768-1.012s-.635 1.772-3.78 1.772c-3.146 0-6.72-2.15-6.72-6.073 0-3.923 2.146-6.573 2.654-8.093.508-1.52-.886-6.195 1.26-9.102 2.146-2.906 5.46-5.04 7.98-5.04 2.52 0 7.438 1.382 7.459 1.39.332.181 2.457-.684 3.032-.646 2.113.117 2.882 1.852 2.907 3.788Z" fill="#263238" stroke="#263238" stroke-linecap="round" stroke-linejoin="round"/><path d="M60.9 88.385c.458.061.923.061 1.381 0M67.283 72.601a8.878 8.878 0 0 1-1.222 3.171c-1.965 3.087-4.2 4.2-6.875 7.14-1.718 1.903-1.395 3.801 0 4.797M67.321 69.321c.082.463.123.933.122 1.403" stroke="#919191" stroke-linecap="round" stroke-linejoin="round"/><path d="M64.68 72.265s-.42 4.347-2.243 6.871c-1.823 2.525-5.46 3.78-5.33 6.452" stroke="#919191" stroke-linecap="round" stroke-linejoin="round"/><path d="M81.605 145.03s2.621 13.465 4.864 20.009c2.243 6.543 4.486 12.528 5.04 13.091.554.563 2.058 2.617 2.058 2.617a4.317 4.317 0 0 1-2.432.936c-1.31 0-2.99-1.68-4.49-2.62-1.499-.941-1.68-1.496-4.674-2.617-2.995-1.121-.559-4.112.189-5.611a6.455 6.455 0 0 0 .747-2.617 29.623 29.623 0 0 0-6.17-11.407c-4.666-5.233-5.602-17.371-5.602-17.371l8.975-3.36 1.495 8.95Z" fill="#fff" stroke="#263238" stroke-linecap="round" stroke-linejoin="round"/><path d="m91.14 177.458-.542.109s-3.18-4.3-5.607-5.795a5.284 5.284 0 0 0-2.806-.933c-.752 1.495-3.18 4.486-.189 5.607 2.99 1.121 3.18 1.68 4.675 2.617 1.495.936 3.18 2.62 4.49 2.62a4.317 4.317 0 0 0 2.431-.936s-1.5-2.058-2.058-2.617a3.1 3.1 0 0 1-.395-.672Z" fill="#CBCBCB" stroke="#263238" stroke-linecap="round" stroke-linejoin="round"/><path d="M89.632 181.15c-1.479-1.02-2.815-3.288-5.221-4.704-2.188-1.285-3.314-1.335-3.78-1.239a2.03 2.03 0 0 0 1.37 1.239c2.994 1.122 3.178 1.68 4.674 2.617.945.605 1.986 1.537 2.957 2.087ZM91.14 181.684a2.28 2.28 0 0 1 0 0Z" fill="#CBCBCB" stroke="#263238" stroke-linecap="round" stroke-linejoin="round"/><path d="M64.94 124.74s8.988-3.184 9.828-1.084c.84 2.1 4.687 9.933 3.284 13.151-1.402 3.217-11.264-9.24-12.667-9.509-1.403-.269-.609-1.617-.445-2.558Z" fill="#fff" stroke="#263238" stroke-linecap="round" stroke-linejoin="round"/><path d="M73.748 128.843s10.219-.84 12.18.983c1.962 1.823-4.758 23.659-8.4 30.517-5.708 10.727-3.982 13.537-3.982 13.537s.42 1.68 3.222 4.343c2.801 2.663 3.641 3.078 2.659 3.498-.983.42-5.18 0-5.6-.281-.42-.281-3.498-2.797-6.3-3.637-2.8-.84-2.38-1.403-1.12-3.923 1.26-2.52 1.12-.42 2.52-4.759a128.234 128.234 0 0 0 3.964-16.317c.744-4.498 1.878-9.437 1.558-14.011l-.7-9.95Z" fill="#fff" stroke="#263238" stroke-linecap="round" stroke-linejoin="round"/><path d="M81.232 135.681a13.57 13.57 0 0 0-5.271-6.266c-4.469-2.852-8.257-5.515-8.257-5.515l-7.375 3.146s1.797 3.049-7.443 4.59c-7.115 1.185-13.646-.533-17.17-2.604-.49 2.441-1.003 5.154-1.26 7.14-.49 4.129 3.835 8.258 6.49 9.539 2.654 1.281 24.04 3.931 29.799.231 10.487-6.708 10.487-10.261 10.487-10.261Z" fill="#263238" stroke="#263238" stroke-linecap="round" stroke-linejoin="round"/><path d="M59.493 129.36c-.987.81-2.91 1.68-6.607 2.28-7.114 1.185-13.645-.533-17.17-2.604-.125.626-.251 1.26-.377 1.911 2.415 1.454 7.489 3.915 13.209 3.213 6.825-.835 9.857-2.7 10.945-4.8Z" fill="#CBCBCB" stroke="#263238" stroke-linecap="round" stroke-linejoin="round"/><path d="M54.041 138.356c-.327.42-.667.84-1.012 1.26M59.186 130.385a64.022 64.022 0 0 1-4.318 6.863M56.108 133.043s-2.52 3.36-5.178 5.322" stroke="#fff" stroke-linecap="round" stroke-linejoin="round"/><path d="M76.768 178.215c-2.802-2.655-3.222-4.335-3.222-4.335a.91.91 0 0 1-.218-.311c-.189.198-.76.572-2.159.034-1.213-.466-2.364-1.26-3.578-1.793-.29.516-.571.84-1.184 2.07-1.26 2.52-1.68 3.083 1.12 3.923 2.802.84 5.88 3.36 6.3 3.637.42.277 4.62.702 5.6.282.978-.42.142-.849-2.66-3.507Z" fill="#CBCBCB" stroke="#263238" stroke-linecap="round" stroke-linejoin="round"/><path d="m79.347 137.105 4.763-2.94" stroke="#263238" stroke-linecap="round" stroke-linejoin="round"/><path d="M22.45 110.485s15.17-1.898 24.863.84l1.474 36.88H26.04s1.466-19.811-3.59-37.72Z" fill="#919191" stroke="#263238" stroke-linecap="round" stroke-linejoin="round"/><path d="M47.313 111.325c-9.693-2.738-24.864-.84-24.864-.84a102.21 102.21 0 0 1 3.222 18.237 90.92 90.92 0 0 1 22.995 16.38l-1.353-33.777Z" fill="#757575" stroke="#263238" stroke-linecap="round" stroke-linejoin="round"/><path d="M75.918 182.7a.841.841 0 0 1-.79-.546c-3.36-9.055-4.2-32.563-4.25-33.558a.841.841 0 0 1 1.68-.059c0 .244.874 24.23 4.146 33.029a.839.839 0 0 1-.496 1.079.758.758 0 0 1-.29.055ZM57.628 182.7a.842.842 0 0 1-.785-.546c-3.36-9.055-4.2-32.563-4.255-33.558a.841.841 0 1 1 1.68-.059c0 .244.874 24.23 4.15 33.029a.84.84 0 0 1-.496 1.079.779.779 0 0 1-.294.055Z" fill="#fff" stroke="#263238" stroke-linecap="round" stroke-linejoin="round"/><path d="M75.692 148.189H25.641v-1.68h48.38a1.68 1.68 0 0 1 1.68 1.68h-.009Z" fill="#919191" stroke="#263238" stroke-linecap="round" stroke-linejoin="round"/><path d="M75.688 147.781H25.64v1.668h50.047v-1.668Z" fill="#fff" stroke="#263238" stroke-linecap="round" stroke-linejoin="round"/><path d="M46.939 182.7a.835.835 0 0 1-.84-1.012c4.75-22.504.42-69.825.361-70.3a.844.844 0 0 1 1.68-.155c.046.479 4.41 48.048-.39 70.799a.844.844 0 0 1-.811.668ZM20.899 182.087a.753.753 0 0 1-.231-.034.836.836 0 0 1-.58-1.033c10.92-38.766 1.651-69.98 1.559-70.291a.838.838 0 0 1 .568-1.01.843.843 0 0 1 1.036.518c.097.315 9.526 31.975-1.546 71.237a.841.841 0 0 1-.806.613Z" fill="#fff" stroke="#263238" stroke-linecap="round" stroke-linejoin="round"/><path d="M174.46 112.833s-5.162-2.869-5.544 3.633c-.383 6.502-1.336 48.758-1.336 48.758" stroke="#263238" stroke-width="2" stroke-linecap="round" stroke-linejoin="round"/><path d="M166.236 117.037s4.2 9.37 2.298 47.616" stroke="#263238" stroke-width="2" stroke-linecap="round" stroke-linejoin="round"/><path d="M170.372 114.143s-1.978 1.26-3.099-.184c-1.122-1.445.76-4.1-.899-5.234-1.659-1.134-4.528.597-4.528.597s2.205.647 2.134 1.852c-.071 1.205-1.134 1.659-1.26 1.134-.126-.525-1.197-3.179-2.986-2.075a4.43 4.43 0 0 0-2.067 2.814s4.171-.445 4.423 1.122c.252 1.566-1.709-.273-3.431-.374-1.722-.101-3.293.151-3.18 1.193.039.921-.016 1.844-.164 2.755a5.142 5.142 0 0 1 3.36-1.185c1.895.114 1.823 1.319.101 1.218-1.722-.1-3.2 1.538-3.2 1.538s1.571 2.683 3.566 4.011c1.995 1.327 2.713.84 2.94-.173.226-1.012-.303-3.645.903-3.574 1.205.072-1.995 4.545-.458 4.809 1.537.265 2.776-.18 3.179-1.193l.42-1.012s-.537-2.625-.302-3.645c.235-1.021.516.029.789 1.26.273 1.23.446 4.17.971 4.027.525-.142 2.209-2.284 2.604-3.129.394-.844-2.218-3.41-2.189-3.927.03-.516 2.046.467 2.361 1.004.229.408.435.829.617 1.26 0 0 1.26-.789 1.227-3.209-.034-2.419-1.832-1.68-1.832-1.68Z" fill="#CBCBCB"/><path opacity=".3" d="M170.372 114.143s-1.978 1.26-3.099-.184c-1.122-1.445.76-4.1-.899-5.234-1.659-1.134-4.528.597-4.528.597s2.205.647 2.134 1.852c-.071 1.205-1.134 1.659-1.26 1.134-.126-.525-1.197-3.179-2.986-2.075a4.43 4.43 0 0 0-2.067 2.814s4.171-.445 4.423 1.122c.252 1.566-1.709-.273-3.431-.374-1.722-.101-3.293.151-3.18 1.193.039.921-.016 1.844-.164 2.755a5.142 5.142 0 0 1 3.36-1.185c1.895.114 1.823 1.319.101 1.218-1.722-.1-3.2 1.538-3.2 1.538s1.571 2.683 3.566 4.011c1.995 1.327 2.713.84 2.94-.173.226-1.012-.303-3.645.903-3.574 1.205.072-1.995 4.545-.458 4.809 1.537.265 2.776-.18 3.179-1.193l.42-1.012s-.537-2.625-.302-3.645c.235-1.021.516.029.789 1.26.273 1.23.446 4.17.971 4.027.525-.142 2.209-2.284 2.604-3.129.394-.844-2.218-3.41-2.189-3.927.03-.516 2.046.467 2.361 1.004.229.408.435.829.617 1.26 0 0 1.26-.789 1.227-3.209-.034-2.419-1.832-1.68-1.832-1.68Z" fill="#263238"/><path d="M160.359 119.817c1.29-1.591 3.184-3.746 4.776-4.775M158.869 121.754s.328-.458.865-1.147M165.976 115.437s1.915 2.705 2.268 5.489M163.801 117.037s.537-.315.336 3.129M165.207 113.82s1.096-.97.517-2.906M163.728 115.479l-.781-1.428M162.086 116.936s-2.478-1.873-4.027-1.965" stroke="#263238" stroke-linecap="round" stroke-linejoin="round"/><path d="M177.412 109.04s-.08 2.839-2.297 2.978c-2.218.139-3.587-3.557-5.855-2.667-2.268.89-2.487 4.939-2.487 4.939s2.151-1.768 3.31-.878c1.159.891.89 2.268.265 2.05-.626-.218-3.995-.97-4.112 1.575a5.381 5.381 0 0 0 1.407 3.99s2.398-4.481 4.145-3.667c1.747.815-1.44 1.529-2.717 3.184-1.277 1.655-2.1 3.398-.97 3.998.949.588 1.835 1.27 2.646 2.037 0 0-.303-2.343 1.1-4.162 1.403-1.818 2.558-.928 1.285.727-1.272 1.655-.642 4.254-.642 4.254s3.754.257 6.442-.84c2.688-1.096 2.705-2.137 1.84-3.066-.865-.928-3.856-2.179-2.965-3.36.89-1.18 3.192 5.095 4.506 3.734 1.315-1.361 1.71-2.902.971-3.998l-.74-1.092s-2.99-1.26-3.855-2.184c-.865-.924.382-.496 1.797.067 1.416.563 4.478 2.398 4.696 1.772.218-.625-.785-3.78-1.357-4.737-.571-.958-4.93-.105-5.426-.487-.496-.383 1.861-1.731 2.612-1.68.564.046 1.125.124 1.68.231 0 0 .068-1.798-2.377-3.415-2.444-1.617-2.902.697-2.902.697Z" fill="#CBCBCB"/><path opacity=".2" d="M177.412 109.04s-.08 2.839-2.297 2.978c-2.218.139-3.587-3.557-5.855-2.667-2.268.89-2.487 4.939-2.487 4.939s2.151-1.768 3.31-.878c1.159.891.89 2.268.265 2.05-.626-.218-3.995-.97-4.112 1.575a5.381 5.381 0 0 0 1.407 3.99s2.398-4.481 4.145-3.667c1.747.815-1.44 1.529-2.717 3.184-1.277 1.655-2.1 3.398-.97 3.998.949.588 1.835 1.27 2.646 2.037 0 0-.303-2.343 1.1-4.162 1.403-1.818 2.558-.928 1.285.727-1.272 1.655-.642 4.254-.642 4.254s3.754.257 6.442-.84c2.688-1.096 2.705-2.137 1.84-3.066-.865-.928-3.856-2.179-2.965-3.36.89-1.18 3.192 5.095 4.506 3.734 1.315-1.361 1.71-2.902.971-3.998l-.74-1.092s-2.99-1.26-3.855-2.184c-.865-.924.382-.496 1.797.067 1.416.563 4.478 2.398 4.696 1.772.218-.625-.785-3.78-1.357-4.737-.571-.958-4.93-.105-5.426-.487-.496-.383 1.861-1.731 2.612-1.68.564.046 1.125.124 1.68.231 0 0 .068-1.798-2.377-3.415-2.444-1.617-2.902.697-2.902.697Z" fill="#263238"/><path d="M176.27 122.93c-.71-2.39-1.584-5.75-1.525-8.035M177.189 125.748s-.235-.647-.558-1.651M175.711 114.324s4.011-.076 7.039 1.47M175.837 117.6s.05-.752 3.36 1.798M173.586 114s-.227-1.755-2.558-2.494M174.22 116.6l-1.961-.193M174.56 119.238s-3.566 1.205-4.712 2.696" stroke="#263238" stroke-linecap="round" stroke-linejoin="round"/><path d="M153.619 127.94s11.281 7.455 11.092 36.33" stroke="#263238" stroke-width="2" stroke-linecap="round" stroke-linejoin="round"/><path d="M167.529 125.97s-.361 3.268-2.94 3.218c-2.579-.051-3.78-4.444-6.501-3.629-2.722.815-3.339 5.46-3.339 5.46s2.654-1.84 3.906-.697c1.251 1.142.81 2.7.109 2.389-.702-.31-4.519-1.499-4.893 1.428a6.204 6.204 0 0 0 1.26 4.734s3.192-4.944 5.128-3.835-1.806 1.626-3.436 3.415c-1.629 1.789-2.734 3.721-1.499 4.519a18.966 18.966 0 0 1 2.864 2.604s-.13-2.73 1.659-4.7c1.79-1.97 3.045-.84 1.416.962-1.63 1.802-1.143 4.847-1.143 4.847s4.314.651 7.518-.357c3.205-1.008 3.318-2.209 2.407-3.36-.911-1.151-4.242-2.881-3.104-4.133 1.138-1.252 3.201 6.182 4.847 4.733 1.646-1.449 2.243-3.183 1.495-4.519l-.747-1.335s-3.331-1.727-4.242-2.882c-.912-1.155.487-.533 2.066.248 1.579.781 4.943 3.188 5.25 2.491.307-.697-.55-4.427-1.117-5.599-.567-1.172-5.679-.588-6.216-1.075-.538-.487 2.314-1.819 3.175-1.68.641.107 1.276.247 1.903.42 0 0 .243-2.066-2.424-4.166-2.667-2.1-3.402.499-3.402.499Z" fill="#CBCBCB"/><path opacity=".3" d="M167.529 125.97s-.361 3.268-2.94 3.218c-2.579-.051-3.78-4.444-6.501-3.629-2.722.815-3.339 5.46-3.339 5.46s2.654-1.84 3.906-.697c1.251 1.142.81 2.7.109 2.389-.702-.31-4.519-1.499-4.893 1.428a6.204 6.204 0 0 0 1.26 4.734s3.192-4.944 5.128-3.835-1.806 1.626-3.436 3.415c-1.629 1.789-2.734 3.721-1.499 4.519a18.966 18.966 0 0 1 2.864 2.604s-.13-2.73 1.659-4.7c1.79-1.97 3.045-.84 1.416.962-1.63 1.802-1.143 4.847-1.143 4.847s4.314.651 7.518-.357c3.205-1.008 3.318-2.209 2.407-3.36-.911-1.151-4.242-2.881-3.104-4.133 1.138-1.252 3.201 6.182 4.847 4.733 1.646-1.449 2.243-3.183 1.495-4.519l-.747-1.335s-3.331-1.727-4.242-2.882c-.912-1.155.487-.533 2.066.248 1.579.781 4.943 3.188 5.25 2.491.307-.697-.55-4.427-1.117-5.599-.567-1.172-5.679-.588-6.216-1.075-.538-.487 2.314-1.819 3.175-1.68.641.107 1.276.247 1.903.42 0 0 .243-2.066-2.424-4.166-2.667-2.1-3.402.499-3.402.499Z" fill="#263238"/><path d="M164.901 141.889c-.605-2.806-1.281-6.775-1.004-9.417M165.698 145.227s-.21-.768-.491-1.957M165.06 131.905s4.62.294 7.98 2.36M164.904 135.66s.13-.861 3.709 2.394M162.645 131.334s-.097-2.05-2.713-3.125M163.132 134.392l-2.242-.408M163.279 137.466s-4.229 1.058-5.695 2.667" stroke="#263238" stroke-linecap="round" stroke-linejoin="round"/><path d="M158.017 150.692s7.266 5.544 8.03 13.767l-1.529-27.539M175.606 146.677c-9.559-1.722-9.559 17.782-9.559 17.782" stroke="#263238" stroke-width="2" stroke-linecap="round" stroke-linejoin="round"/><path d="M167.193 164.27s-5.544-40.345 10.5-40.345" stroke="#263238" stroke-width="2" stroke-linecap="round" stroke-linejoin="round"/><path d="M171.965 145.517c-1.306-1.47-4.083-1.47-5.712 2.285-1.63 3.755-.164 3.104-.164 3.104s3.1-.983 5.061-1.634c1.961-.651 4.57-2.285 4.733-1.306.164.979-1.306 1.957-3.103 2.285-1.798.327-6.527 1.634-6.04 2.629.487.995 1.634 3.919 1.634 3.919a41.053 41.053 0 0 1 4.406-3.264c2.125-1.306 3.431-.819 2.289.651-1.143 1.47-4.41 3.1-3.755 5.061.655 1.962 4.569 4.406 4.569 4.406s.492-4.078 1.634-5.384c1.143-1.307 1.143.163.815 2.448a26.622 26.622 0 0 0-.328 2.94l4.57 1.634a32.402 32.402 0 0 1 2.449-3.263l.84-.84s-3.591-3.1-3.755-5.04c-.164-1.941 2.448 0 3.263.327.815.328 2.121 2.613 2.121 2.613s.819-3.755.983-5.061l.164-1.307s-3.432-1.306-4.738-1.306c-1.306 0-1.957.979-1.957-.323s1.306-2.125 2.776-1.962c1.33.223 2.64.55 3.919.979 0 0 .978-.815.651-3.263-.328-2.449-1.143-2.449-3.1-1.798-1.957.651-3.267 2.125-4.737 2.125-1.47 0-.651-1.797.327-2.285.979-.487 3.427-1.47 3.919-1.633.491-.164-2.613-2.449-4.246-2.777-1.634-.327-3.747.84-3.591 2.449.306 3.406-4.591 4.074-5.897 2.591Z" fill="#CBCBCB"/><path d="M182.473 162.326c.05.49.084.981.1 1.474M179.193 150.608a43.207 43.207 0 0 1 3.087 10.113M178.605 149.297c-.807-1.738-1.416-2.801-1.416-2.801a4.804 4.804 0 0 0 2.121-1.957 5.464 5.464 0 0 1 1.634-1.962M171.478 152.04s5.88-2.449 5.88-1.961M180.6 148.944s2.612-1.306 4.897-1.306M179.638 152.88a22.538 22.538 0 0 0-3.104 3.104 14.103 14.103 0 0 0-2.285 3.75M181.439 153.518s3.432-.982 5.225.651" stroke="#263238" stroke-linecap="round" stroke-linejoin="round"/><path d="M187.643 131.46c-1.777-1.05-3.743-1.075-4.709-2.184-.966-1.109.929-1.68 1.941-1.26 1.012.42 3.36 1.625 3.801 1.886.441.26.138-3.575-.685-5.04-.823-1.466-3.078-2.289-4.2-1.105-2.373 2.491-6.077-.777-5.825-2.726.252-1.949-1.567-4.044-5.46-2.818-3.894 1.226-2.449 1.911-2.449 1.911s2.772 1.701 4.553 2.751c1.781 1.05 4.721 1.953 4.087 2.717-.635.765-2.336.299-3.759-.84-1.424-1.138-5.511-3.859-5.931-2.847-.42 1.012-1.89 3.801-1.89 3.801a41.38 41.38 0 0 1 5.355 1.188c2.377.748 2.865 2.054 1.008 2.155-1.856.101-5.233-1.294-6.3.483-1.067 1.777-.332 6.338-.332 6.338s3.402-2.302 5.137-2.298c1.735.005.626.971-1.315 2.222a26.32 26.32 0 0 0-2.431 1.68l1.764 4.524a32.585 32.585 0 0 1 4.069-.294l1.151.084s0-4.746 1.361-6.153c1.361-1.407 1.604 1.848 1.894 2.679.29.832-.579 3.314-.579 3.314s3.36-1.844 4.46-2.579l1.096-.731s-1.26-3.448-2.121-4.431c-.861-.982-2.02-.84-1.037-1.68.983-.84 2.461-.42 3.301.815a25.242 25.242 0 0 1 1.827 3.6s1.26.205 2.894-1.647c1.634-1.852 1.1-2.465-.676-3.515Zm-15.444 5.225c-1.306-.656 1.794-1.962 1.794-1.962 1.146-.159-.492 2.617-1.794 1.962Zm2.197-6.095c-.555-.277 1.113-.84 1.113-.84 2.411.45-.559 1.118-1.117.84h.004Z" fill="#CBCBCB"/><path d="M172.158 140.011c-.336.357-.689.706-1.046 1.042M178.857 129.851a43.097 43.097 0 0 1-5.624 8.951M179.462 128.549c.785-1.751 1.184-2.906 1.184-2.906a4.85 4.85 0 0 0 2.873.319 5.442 5.442 0 0 1 2.55-.055M178.042 128.121c.369-.323-5.33-3.154-5.33-3.154M181.045 129.834s2.701 1.118 4.2 2.844M177.446 131.666a22.587 22.587 0 0 0-4.376-.311 14.176 14.176 0 0 0-4.335.735M178.131 133.451s2.986 1.944 2.94 4.372" stroke="#263238" stroke-linecap="round" stroke-linejoin="round"/><path d="M162.275 154.077c-1.428-.84-3.012-.861-3.78-1.756-.769-.894.743-1.344 1.558-1.008.815.336 2.705 1.311 3.062 1.521.357.21.109-2.881-.555-4.045-.663-1.163-2.478-1.839-3.381-.89-1.911 2.007-4.893-.626-4.687-2.193.206-1.566-1.26-3.255-4.406-2.268-3.145.987-1.969 1.538-1.969 1.538s2.23 1.369 3.662 2.213c1.432.844 3.801 1.575 3.289 2.188-.513.613-1.878.244-3.024-.676-1.147-.92-4.436-3.108-4.772-2.293-.336.815-1.52 3.057-1.52 3.057 1.456.225 2.895.545 4.309.958 1.911.601 2.302 1.651.807 1.73-1.496.08-4.2-1.041-5.04.391-.84 1.432-.269 5.103-.269 5.103s2.738-1.856 4.133-1.852c1.394.004.504.781-1.055 1.789-.677.414-1.33.865-1.957 1.352l1.416 3.638a26.01 26.01 0 0 1 3.276-.231l.928.063s0-3.818 1.096-4.952 1.289 1.487 1.52 2.159c.231.672-.466 2.667-.466 2.667s2.713-1.487 3.591-2.075l.882-.592s-1.016-2.772-1.705-3.566c-.689-.794-1.63-.672-.84-1.361.79-.689 1.978-.328 2.654.651.567.926 1.06 1.895 1.475 2.898 0 0 1.012.164 2.326-1.323 1.315-1.487.874-1.987-.558-2.835Zm-12.432 4.2c-1.05-.525 1.445-1.575 1.445-1.575.919-.126-.395 2.108-1.445 1.579v-.004Zm1.776-4.897c-.449-.227.895-.672.895-.672 1.936.374-.454.894-.895.672Z" fill="#CBCBCB"/><path d="M149.818 160.961c-.273.285-.555.567-.84.84M155.206 152.783a34.62 34.62 0 0 1-4.523 7.203M155.693 151.733c.63-1.407.954-2.335.954-2.335a3.904 3.904 0 0 0 2.31.256 4.342 4.342 0 0 1 2.049-.042M150.259 148.852s4.59 2.281 4.292 2.52M156.967 152.771s2.171.898 3.36 2.289M154.068 154.245a18.114 18.114 0 0 0-3.519-.248 11.18 11.18 0 0 0-3.487.592M154.623 155.681s2.402 1.567 2.356 3.516" stroke="#263238" stroke-linecap="round" stroke-linejoin="round"/><path d="M156.446 127.121s-1.798 1.306-2.94 0c-1.143-1.306.491-3.918-1.143-4.897-1.634-.979-4.242.815-4.242.815s2.121.491 2.121 1.634c0 1.142-.978 1.633-1.142 1.142-.164-.491-1.306-2.94-2.94-1.793a4.212 4.212 0 0 0-1.181 1.202 4.212 4.212 0 0 0-.613 1.57s3.915-.651 4.242.819c.328 1.47-1.629-.164-3.263-.164s-3.104.327-2.94 1.306a12.81 12.81 0 0 1 0 2.612 4.86 4.86 0 0 1 3.104-1.306c1.793 0 1.793 1.143.164 1.143-1.63 0-2.94 1.633-2.94 1.633s1.633 2.449 3.591 3.591c1.957 1.143 2.612.651 2.776-.327.164-.979-.492-3.427.651-3.427 1.142 0-1.63 4.405-.164 4.569 1.466.164 2.612-.327 2.94-1.306l.328-.979s-.656-2.448-.492-3.427c.164-.978.492 0 .815 1.143.323 1.142.655 3.914 1.147 3.754.491-.159 1.957-2.289 2.284-3.103.328-.815-2.284-3.1-2.284-3.591 0-.492 1.957.327 2.284.814.328.488.651 1.143.651 1.143s1.143-.815.979-3.1c-.164-2.285-1.793-1.47-1.793-1.47Z" fill="#CBCBCB"/><path d="M147.299 133.043c1.13-1.575 2.805-3.717 4.25-4.779M145.996 134.958s.29-.453.756-1.134M152.363 128.591s1.962 2.449 2.449 5.061M150.406 130.225s.487-.327.487 2.94M151.548 127.121s.978-.978.327-2.776M150.242 128.755l-.815-1.306M148.772 130.225s-2.448-1.634-3.918-1.634" stroke="#263238" stroke-linecap="round" stroke-linejoin="round"/><path d="M172.931 163.695H160.31v18.165h12.621v-18.165Z" fill="#263238" stroke="#263238" stroke-width="2" stroke-linecap="round" stroke-linejoin="round"/></svg>