<svg width="70" height="20" viewBox="0 0 70 20" fill="none" xmlns="http://www.w3.org/2000/svg">
<path d="M9.224 10.384C9.832 10.48 10.384 10.728 10.88 11.128C11.392 11.528 11.792 12.024 12.08 12.616C12.384 13.208 12.536 13.84 12.536 14.512C12.536 15.36 12.32 16.128 11.888 16.816C11.456 17.488 10.824 18.024 9.992 18.424C9.176 18.808 8.208 19 7.088 19H0.848V2.272H6.848C7.984 2.272 8.952 2.464 9.752 2.848C10.552 3.216 11.152 3.72 11.552 4.36C11.952 5 12.152 5.72 12.152 6.52C12.152 7.512 11.88 8.336 11.336 8.992C10.808 9.632 10.104 10.096 9.224 10.384ZM3.032 9.496H6.704C7.728 9.496 8.52 9.256 9.08 8.776C9.64 8.296 9.92 7.632 9.92 6.784C9.92 5.936 9.64 5.272 9.08 4.792C8.52 4.312 7.712 4.072 6.656 4.072H3.032V9.496ZM6.896 17.2C7.984 17.2 8.832 16.944 9.44 16.432C10.048 15.92 10.352 15.208 10.352 14.296C10.352 13.368 10.032 12.64 9.392 12.112C8.752 11.568 7.896 11.296 6.824 11.296H3.032V17.2H6.896ZM17.7508 7.984C18.1348 7.232 18.6788 6.648 19.3828 6.232C20.1028 5.816 20.9748 5.608 21.9988 5.608V7.864H21.4228C18.9748 7.864 17.7508 9.192 17.7508 11.848V19H15.5668V5.848H17.7508V7.984ZM25.6479 3.712C25.2319 3.712 24.8799 3.568 24.5919 3.28C24.3039 2.992 24.1599 2.64 24.1599 2.224C24.1599 1.808 24.3039 1.456 24.5919 1.168C24.8799 0.879999 25.2319 0.735999 25.6479 0.735999C26.0479 0.735999 26.3839 0.879999 26.6559 1.168C26.9439 1.456 27.0879 1.808 27.0879 2.224C27.0879 2.64 26.9439 2.992 26.6559 3.28C26.3839 3.568 26.0479 3.712 25.6479 3.712ZM26.7039 5.848V19H24.5199V5.848H26.7039ZM33.0901 7.648V15.4C33.0901 16.04 33.2261 16.496 33.4981 16.768C33.7701 17.024 34.2421 17.152 34.9141 17.152H36.5221V19H34.5541C33.3381 19 32.4261 18.72 31.8181 18.16C31.2101 17.6 30.9061 16.68 30.9061 15.4V7.648H29.2021V5.848H30.9061V2.536H33.0901V5.848H36.5221V7.648H33.0901Z" fill="black"/>
<path d="M41.3523 1.24V19H39.1683V1.24H41.3523ZM57.0746 11.92C57.0746 12.336 57.0506 12.776 57.0026 13.24H46.4906C46.5706 14.536 47.0106 15.552 47.8106 16.288C48.6266 17.008 49.6106 17.368 50.7626 17.368C51.7066 17.368 52.4906 17.152 53.1146 16.72C53.7546 16.272 54.2026 15.68 54.4586 14.944H56.8106C56.4586 16.208 55.7546 17.24 54.6986 18.04C53.6426 18.824 52.3306 19.216 50.7626 19.216C49.5146 19.216 48.3946 18.936 47.4026 18.376C46.4266 17.816 45.6586 17.024 45.0986 16C44.5386 14.96 44.2586 13.76 44.2586 12.4C44.2586 11.04 44.5306 9.848 45.0746 8.824C45.6186 7.8 46.3786 7.016 47.3546 6.472C48.3466 5.912 49.4826 5.632 50.7626 5.632C52.0106 5.632 53.1146 5.904 54.0746 6.448C55.0346 6.992 55.7706 7.744 56.2826 8.704C56.8106 9.648 57.0746 10.72 57.0746 11.92ZM54.8186 11.464C54.8186 10.632 54.6346 9.92 54.2666 9.328C53.8986 8.72 53.3946 8.264 52.7546 7.96C52.1306 7.64 51.4346 7.48 50.6666 7.48C49.5626 7.48 48.6186 7.832 47.8346 8.536C47.0666 9.24 46.6266 10.216 46.5146 11.464H54.8186ZM66.8214 19L63.7014 14.104L60.7014 19H58.4214L62.6694 12.472L58.4214 5.848H60.8934L64.0134 10.72L66.9894 5.848H69.2694L65.0454 12.352L69.2934 19H66.8214Z" fill="#939393"/>
</svg>
